<?xml version="1.0" encoding="utf-8"?>
<!-- Generator: Adobe Illustrator 19.0.1, SVG Export Plug-In . SVG Version: 6.00 Build 0)  -->
<svg version="1.1" id="Layer_2" xmlns="http://www.w3.org/2000/svg" xmlns:xlink="http://www.w3.org/1999/xlink" x="0px" y="0px"
	 viewBox="-229 81 500 400" style="enable-background:new -229 81 500 400;" xml:space="preserve">
<style type="text/css">
	.st0{display:none;fill:#FFFFFF;}
	.st1{fill:#0095BB;}
	.st2{fill:#00B4D7;}
	.st3{fill:#006085;}
	.st4{fill:#0086AC;}
	.st5{fill:#009AC0;}
	.st6{fill:#00DBF4;}
	.st7{fill:#00496A;}
	.st8{fill:#003854;}
	.st9{fill:#006A90;}
	.st10{fill:#004869;}
	.st11{fill:#1D1D1B;}
</style>
<rect x="-229" y="81" class="st0" width="500" height="400"/>
<g>
	<polygon class="st1" points="-1.6,281.4 66.1,262.4 39.7,317.7 	"/>
	<polygon class="st2" points="-1.6,281.4 15.6,212.9 66.1,262.4 	"/>
	<polygon class="st3" points="15.6,212.9 -1.6,281.4 -42,237.5 	"/>
	<polygon class="st4" points="66.1,262.4 82.4,271.6 39.7,317.7 	"/>
	<polygon class="st5" points="66.1,262.4 67.5,206.8 82.4,271.6 	"/>
	<polygon class="st6" points="67.5,206.8 66.1,262.4 15.6,212.9 	"/>
	<polygon class="st7" points="-27.1,302.3 -1.6,281.4 39.7,317.7 	"/>
	<polygon class="st8" points="-27.1,302.3 -42,237.5 -1.6,281.4 	"/>
	<polygon class="st9" points="0.8,191.4 67.5,206.8 15.6,212.9 	"/>
	<polygon class="st10" points="0.8,191.4 15.6,212.9 -42,237.5 	"/>
</g>
<path class="st11" d="M103.7,281.1c0-0.1,0-0.3-0.1-0.4l-20.9-90.9c0-0.1-0.1-0.1-0.1-0.2c0-0.1,0-0.1-0.1-0.1
	c-0.1-0.1-0.2-0.1-0.3-0.2c0,0,0,0-0.1-0.1l-93.8-21.7l0,0c0,0,0,0-0.1,0c-0.2,0-0.4,0.1-0.6,0.2l-60.1,64.8v0.1
	c0,0.1-0.1,0.1-0.1,0.2l0,0l0,0c0,0.1,0,0.1,0,0.2v0.1l21,91.1c0.1,0.2,0.2,0.4,0.5,0.5c0,0,0,0,0.1,0l0,0l93.8,21.7
	c0.1,0,0.1,0,0.2,0l0,0l0,0h0.1l0.1-0.1c0.1,0,0.3-0.1,0.4-0.2l60-64.7C103.6,281.5,103.7,281.3,103.7,281.1z M-11.9,169.5
	l19.8,28.7l-77,33L-11.9,169.5z M81.3,190.8L80.6,216l-1.3,50.5l-20.3-20L10.6,199L81.3,190.8z M78.6,267.9l-92.7,26L9.5,200
	l20.7,20.3L78.6,267.9z M-70.7,233.5l78.6-33.7l-23.5,93.7l-44.1-48L-70.7,233.5z M50.6,277.2l28.1-7.9l-35.9,75.4l-56.4-49.5
	L50.6,277.2z M22.1,196.3l-12.7,1.5l-19.5-28.3l88,20.3L22.1,196.3z M80.3,269.2l21.6,12.1L45.6,342L80.3,269.2z M80.7,267.8
	l1.9-72.1l19.3,84L80.7,267.8z M-70.6,235.7l54.4,59.2L-50.5,323L-70.6,235.7z M-49.3,323.9l34.2-28.1l55.5,48.7L-49.3,323.9z"/>
</svg>
