<?xml version="1.0" encoding="utf-8"?>
<!-- Generator: Adobe Illustrator 19.0.1, SVG Export Plug-In . SVG Version: 6.00 Build 0)  -->
<svg version="1.1" id="Calque_1" xmlns="http://www.w3.org/2000/svg" xmlns:xlink="http://www.w3.org/1999/xlink" x="0px" y="0px"
	 viewBox="0 0 96.7 96.7" style="enable-background:new 0 0 96.7 96.7;" xml:space="preserve">
<style type="text/css">
	.st0{clip-path:url(#SVGID_2_);}
	.st1{fill:url(#triangle_x5F_15_1_);}
	.st2{fill:url(#triangle_x5F_17_1_);}
	.st3{fill:url(#triangle_x5F_26_1_);}
	.st4{fill:url(#triangle_x5F_27_1_);}
	.st5{fill:url(#triangle_x5F_31_1_);}
	.st6{fill:url(#triangle_x5F_32_1_);}
	.st7{fill:url(#triangle_x5F_35_1_);}
	.st8{fill:url(#triangle_x5F_41_1_);}
	.st9{fill:url(#triangle_x5F_42_1_);}
	.st10{fill:url(#triangle_x5F_47_1_);}
	.st11{fill:url(#triangle_x5F_52_1_);}
	.st12{fill:url(#triangle_x5F_53_1_);}
	.st13{fill:url(#triangle_x5F_61_1_);}
	.st14{fill:url(#triangle_x5F_63_1_);}
	.st15{fill:url(#triangle_x5F_64_1_);}
	.st16{fill:url(#triangle_x5F_65_1_);}
	.st17{fill:url(#triangle_x5F_69_1_);}
	.st18{fill:url(#triangle_x5F_70_1_);}
	.st19{fill:url(#triangle_x5F_71_1_);}
	.st20{fill:url(#triangle_x5F_73_1_);}
	.st21{fill:url(#triangle_x5F_79_1_);}
	.st22{fill:url(#triangle_x5F_81_1_);}
	.st23{fill:url(#triangle_x5F_82_1_);}
	.st24{fill:url(#triangle_x5F_85_1_);}
	.st25{fill:url(#triangle_x5F_86_2_);}
	.st26{fill:url(#triangle_x5F_90_1_);}
	.st27{fill:url(#triangle_x5F_91_1_);}
	.st28{fill:url(#triangle_x5F_96_1_);}
	.st29{fill:url(#triangle_x5F_97_1_);}
	.st30{fill:url(#triangle_x5F_98_1_);}
	.st31{fill:url(#triangle_x5F_99_2_);}
	.st32{fill:url(#triangle_x5F_102_1_);}
	.st33{fill:url(#triangle_x5F_107_1_);}
	.st34{fill:url(#triangle_x5F_108_1_);}
	.st35{fill:url(#triangle_x5F_110_1_);}
	.st36{fill:url(#triangle_x5F_113_1_);}
	.st37{fill:url(#triangle_x5F_114_1_);}
	.st38{fill:#FFFFFF;}
</style>
<g>
	<defs>
		<circle id="SVGID_1_" cx="48.3" cy="48.3" r="48.3"/>
	</defs>
	<clipPath id="SVGID_2_">
		<use xlink:href="#SVGID_1_"  style="overflow:visible;"/>
	</clipPath>
	<g id="D.I._triangles_20_" class="st0">
		
			<linearGradient id="triangle_x5F_15_1_" gradientUnits="userSpaceOnUse" x1="62.0009" y1="-538.1974" x2="40.1515" y2="-569.4472" gradientTransform="matrix(1 0 0 -1 0 -507.9169)">
			<stop  offset="0" style="stop-color:#FE9B67"/>
			<stop  offset="1" style="stop-color:#F35F40"/>
		</linearGradient>
		<polygon id="triangle_x5F_15_7_" class="st1" points="62,30.3 26.6,58.9 26.6,58.9 53.7,64.2 53.7,64.2 		"/>
		
			<linearGradient id="triangle_x5F_17_1_" gradientUnits="userSpaceOnUse" x1="62.001" y1="-538.1973" x2="63.5253" y2="-563.0955" gradientTransform="matrix(1 0 0 -1 0 -507.9169)">
			<stop  offset="0" style="stop-color:#FDD09A"/>
			<stop  offset="1" style="stop-color:#FDAE78"/>
		</linearGradient>
		<polygon id="triangle_x5F_17_2_" class="st2" points="62,30.3 53.7,64.2 53.7,64.2 73.3,46.2 73.3,46.2 		"/>
		
			<linearGradient id="triangle_x5F_26_1_" gradientUnits="userSpaceOnUse" x1="28.8033" y1="-512.7909" x2="58.0206" y2="-520.2435" gradientTransform="matrix(1 0 0 -1 0 -507.9169)">
			<stop  offset="0" style="stop-color:#F27866"/>
			<stop  offset="1" style="stop-color:#FA8B61"/>
		</linearGradient>
		<polygon id="triangle_x5F_26_4_" class="st3" points="28.8,4.9 62,30.3 62,30.3 54,-5.6 54,-5.6 		"/>
		
			<linearGradient id="triangle_x5F_27_1_" gradientUnits="userSpaceOnUse" x1="62.0009" y1="-538.1973" x2="67.2516" y2="-512.8755" gradientTransform="matrix(1 0 0 -1 0 -507.9169)">
			<stop  offset="0" style="stop-color:#FBAE79"/>
			<stop  offset="1" style="stop-color:#FCC19A"/>
		</linearGradient>
		<polygon id="triangle_x5F_27_5_" class="st4" points="62,30.3 80.5,15.5 80.5,15.5 54,-5.6 54,-5.6 		"/>
		
			<linearGradient id="triangle_x5F_31_1_" gradientUnits="userSpaceOnUse" x1="62.0009" y1="-538.1973" x2="18.8947" y2="-521.6832" gradientTransform="matrix(1 0 0 -1 0 -507.9169)">
			<stop  offset="0" style="stop-color:#F97B62"/>
			<stop  offset="1" style="stop-color:#F37C7A"/>
		</linearGradient>
		<polygon id="triangle_x5F_31_5_" class="st5" points="62,30.3 28.8,4.9 28.8,4.9 9,22.7 9,22.7 		"/>
		
			<linearGradient id="triangle_x5F_32_1_" gradientUnits="userSpaceOnUse" x1="26.6013" y1="-566.8218" x2="35.4936" y2="-534.3864" gradientTransform="matrix(1 0 0 -1 0 -507.9169)">
			<stop  offset="0" style="stop-color:#EC5745"/>
			<stop  offset="1" style="stop-color:#FA7956"/>
		</linearGradient>
		<polygon id="triangle_x5F_32_3_" class="st6" points="26.6,58.9 62,30.3 62,30.3 9,22.7 9,22.7 		"/>
		
			<linearGradient id="triangle_x5F_35_1_" gradientUnits="userSpaceOnUse" x1="26.6014" y1="-566.8219" x2="5.6834" y2="-552.0862" gradientTransform="matrix(1 0 0 -1 0 -507.9169)">
			<stop  offset="0" style="stop-color:#F16C64"/>
			<stop  offset="1" style="stop-color:#FB8F93"/>
		</linearGradient>
		<polygon id="triangle_x5F_35_5_" class="st7" points="26.6,58.9 9,22.7 9,22.7 2.4,65.7 2.4,65.7 		"/>
		
			<linearGradient id="triangle_x5F_41_1_" gradientUnits="userSpaceOnUse" x1="53.7016" y1="-572.0724" x2="28.8878" y2="-580.2872" gradientTransform="matrix(1 0 0 -1 0 -507.9169)">
			<stop  offset="0" style="stop-color:#D12910"/>
			<stop  offset="1" style="stop-color:#C42110"/>
		</linearGradient>
		<polygon id="triangle_x5F_41_13_" class="st8" points="53.7,64.2 26.6,58.9 26.6,58.9 31.2,85.8 31.2,85.8 		"/>
		
			<linearGradient id="triangle_x5F_42_1_" gradientUnits="userSpaceOnUse" x1="26.6013" y1="-566.8218" x2="16.7776" y2="-583.6747" gradientTransform="matrix(1 0 0 -1 0 -507.9169)">
			<stop  offset="0" style="stop-color:#C62A1D"/>
			<stop  offset="1" style="stop-color:#D33E2A"/>
		</linearGradient>
		<polygon id="triangle_x5F_42_9_" class="st9" points="26.6,58.9 2.4,65.7 2.4,65.7 31.2,85.8 31.2,85.8 		"/>
		
			<linearGradient id="triangle_x5F_47_1_" gradientUnits="userSpaceOnUse" x1="53.7015" y1="-572.0724" x2="44.3011" y2="-597.8176" gradientTransform="matrix(1 0 0 -1 0 -507.9169)">
			<stop  offset="0" style="stop-color:#DF3919"/>
			<stop  offset="1" style="stop-color:#BF1706"/>
		</linearGradient>
		<polygon id="triangle_x5F_47_7_" class="st10" points="53.7,64.2 31.2,85.8 31.2,85.8 57.4,94 57.4,94 		"/>
		
			<linearGradient id="triangle_x5F_52_1_" gradientUnits="userSpaceOnUse" x1="73.3491" y1="-554.1186" x2="70.7238" y2="-581.8964" gradientTransform="matrix(1 0 0 -1 0 -507.9169)">
			<stop  offset="0" style="stop-color:#FEDDB2"/>
			<stop  offset="1" style="stop-color:#FBAC76"/>
		</linearGradient>
		<polygon id="triangle_x5F_52_6_" class="st11" points="73.3,46.2 53.7,64.2 53.7,64.2 87.7,83.8 87.7,83.8 		"/>
		
			<linearGradient id="triangle_x5F_53_1_" gradientUnits="userSpaceOnUse" x1="53.7015" y1="-572.0725" x2="72.5869" y2="-596.8014" gradientTransform="matrix(1 0 0 -1 0 -507.9169)">
			<stop  offset="0" style="stop-color:#F47B44"/>
			<stop  offset="1" style="stop-color:#ED6631"/>
		</linearGradient>
		<polygon id="triangle_x5F_53_9_" class="st12" points="53.7,64.2 57.4,94 57.4,94 87.7,83.8 87.7,83.8 		"/>
		
			<linearGradient id="triangle_x5F_61_1_" gradientUnits="userSpaceOnUse" x1="73.349" y1="-554.1186" x2="85.1207" y2="-572.2418" gradientTransform="matrix(1 0 0 -1 0 -507.9169)">
			<stop  offset="0" style="stop-color:#FEEBBA"/>
			<stop  offset="1" style="stop-color:#FED480"/>
		</linearGradient>
		<polygon id="triangle_x5F_61_11_" class="st13" points="73.3,46.2 87.7,83.8 87.7,83.8 82.5,44.8 82.5,44.8 		"/>
		
			<linearGradient id="triangle_x5F_63_1_" gradientUnits="userSpaceOnUse" x1="62.0008" y1="-538.1974" x2="78.8538" y2="-546.4121" gradientTransform="matrix(1 0 0 -1 0 -507.9169)">
			<stop  offset="0" style="stop-color:#FFE7B8"/>
			<stop  offset="1" style="stop-color:#FFF3D2"/>
		</linearGradient>
		<polygon id="triangle_x5F_63_10_" class="st14" points="62,30.3 73.3,46.2 73.3,46.2 84.4,30.8 84.4,30.8 		"/>
		
			<linearGradient id="triangle_x5F_64_1_" gradientUnits="userSpaceOnUse" x1="73.3491" y1="-554.1187" x2="83.4268" y2="-545.7346" gradientTransform="matrix(1 0 0 -1 0 -507.9169)">
			<stop  offset="0" style="stop-color:#FFF5D1"/>
			<stop  offset="1" style="stop-color:#FFF3CC"/>
		</linearGradient>
		<polygon id="triangle_x5F_64_4_" class="st15" points="73.3,46.2 82.5,44.8 82.5,44.8 84.4,30.8 84.4,30.8 		"/>
		
			<linearGradient id="triangle_x5F_65_1_" gradientUnits="userSpaceOnUse" x1="80.4628" y1="-523.4617" x2="73.1797" y2="-538.4514" gradientTransform="matrix(1 0 0 -1 0 -507.9169)">
			<stop  offset="0" style="stop-color:#FECF9E"/>
			<stop  offset="1" style="stop-color:#FECB8D"/>
		</linearGradient>
		<polygon id="triangle_x5F_65_9_" class="st16" points="80.5,15.5 62,30.3 62,30.3 84.4,30.8 84.4,30.8 		"/>
		
			<linearGradient id="triangle_x5F_69_1_" gradientUnits="userSpaceOnUse" x1="82.4953" y1="-552.7635" x2="91.5569" y2="-571.8184" gradientTransform="matrix(1 0 0 -1 0 -507.9169)">
			<stop  offset="0" style="stop-color:#FFECB4"/>
			<stop  offset="1" style="stop-color:#FFD07C"/>
		</linearGradient>
		<polygon id="triangle_x5F_69_9_" class="st17" points="82.5,44.8 87.7,83.8 87.7,83.8 95.4,44 95.4,44 		"/>
		
			<linearGradient id="triangle_x5F_70_1_" gradientUnits="userSpaceOnUse" x1="108.5792" y1="-551.0699" x2="89.8633" y2="-545.3112" gradientTransform="matrix(1 0 0 -1 0 -507.9169)">
			<stop  offset="0" style="stop-color:#FCDBBA"/>
			<stop  offset="1" style="stop-color:#FEE1B6"/>
		</linearGradient>
		<polygon id="triangle_x5F_70_11_" class="st18" points="108.6,43.2 84.4,30.8 84.4,30.8 95.4,44 95.4,44 		"/>
		
			<linearGradient id="triangle_x5F_71_1_" gradientUnits="userSpaceOnUse" x1="84.3586" y1="-538.7056" x2="88.9317" y2="-552.3401" gradientTransform="matrix(1 0 0 -1 0 -507.9169)">
			<stop  offset="0" style="stop-color:#FFE6B6"/>
			<stop  offset="1" style="stop-color:#FFECC1"/>
		</linearGradient>
		<polygon id="triangle_x5F_71_6_" class="st19" points="84.4,30.8 82.5,44.8 82.5,44.8 95.4,44 95.4,44 		"/>
		
			<linearGradient id="triangle_x5F_73_1_" gradientUnits="userSpaceOnUse" x1="31.1744" y1="-593.7526" x2="1.2797" y2="-588.8408" gradientTransform="matrix(1 0 0 -1 0 -507.9169)">
			<stop  offset="0" style="stop-color:#BE2212"/>
			<stop  offset="1" style="stop-color:#DC3E29"/>
		</linearGradient>
		<polygon id="triangle_x5F_73_8_" class="st20" points="31.2,85.8 2.4,65.7 2.4,65.7 0.2,96.2 0.2,96.2 		"/>
		
			<linearGradient id="triangle_x5F_79_1_" gradientUnits="userSpaceOnUse" x1="2.3808" y1="-573.597" x2="-3.8015" y2="-532.6078" gradientTransform="matrix(1 0 0 -1 0 -507.9169)">
			<stop  offset="0" style="stop-color:#F98C7C"/>
			<stop  offset="1" style="stop-color:#FD9C9D"/>
		</linearGradient>
		<polygon id="triangle_x5F_79_5_" class="st21" points="2.4,65.7 9,22.7 9,22.7 -16.6,26.7 -16.6,26.7 		"/>
		
			<linearGradient id="triangle_x5F_81_1_" gradientUnits="userSpaceOnUse" x1="0.1788" y1="-604.0844" x2="-7.1043" y2="-554.1188" gradientTransform="matrix(1 0 0 -1 0 -507.9169)">
			<stop  offset="0" style="stop-color:#F56B4D"/>
			<stop  offset="1" style="stop-color:#F9836C"/>
		</linearGradient>
		<polygon id="triangle_x5F_81_2_" class="st22" points="0.2,96.2 2.4,65.7 2.4,65.7 -16.6,26.7 -16.6,26.7 		"/>
		
			<linearGradient id="triangle_x5F_82_1_" gradientUnits="userSpaceOnUse" x1="28.8033" y1="-512.791" x2="27.1096" y2="-506.8628" gradientTransform="matrix(1 0 0 -1 0 -507.9169)">
			<stop  offset="0" style="stop-color:#E99991"/>
			<stop  offset="1" style="stop-color:#E59D82"/>
		</linearGradient>
		<polygon id="triangle_x5F_82_3_" class="st23" points="28.8,4.9 54,-5.6 54,-5.6 0.2,3.5 0.2,3.5 		"/>
		
			<linearGradient id="triangle_x5F_85_1_" gradientUnits="userSpaceOnUse" x1="8.9863" y1="-530.5754" x2="14.491" y2="-512.1135" gradientTransform="matrix(1 0 0 -1 0 -507.9169)">
			<stop  offset="0" style="stop-color:#FBA1B7"/>
			<stop  offset="1" style="stop-color:#F698A7"/>
		</linearGradient>
		<polygon id="triangle_x5F_85_4_" class="st24" points="9,22.7 28.8,4.9 28.8,4.9 0.2,3.5 0.2,3.5 		"/>
		
			<linearGradient id="triangle_x5F_86_2_" gradientUnits="userSpaceOnUse" x1="-16.5895" y1="-534.6404" x2="4.5825" y2="-521.0056" gradientTransform="matrix(1 0 0 -1 0 -507.9169)">
			<stop  offset="0" style="stop-color:#FED2F3"/>
			<stop  offset="1" style="stop-color:#FDBFE1"/>
		</linearGradient>
		<polygon id="triangle_x5F_86_1_" class="st25" points="-16.6,26.7 9,22.7 9,22.7 0.2,3.5 0.2,3.5 		"/>
		
			<linearGradient id="triangle_x5F_90_1_" gradientUnits="userSpaceOnUse" x1="57.4278" y1="-601.8825" x2="29.4807" y2="-605.016" gradientTransform="matrix(1 0 0 -1 0 -507.9169)">
			<stop  offset="0" style="stop-color:#B83724"/>
			<stop  offset="1" style="stop-color:#A61A10"/>
		</linearGradient>
		<polygon id="triangle_x5F_90_2_" class="st26" points="57.4,94 31.2,85.8 31.2,85.8 27.8,108.4 27.8,108.4 		"/>
		
			<linearGradient id="triangle_x5F_91_1_" gradientUnits="userSpaceOnUse" x1="31.1744" y1="-593.7526" x2="13.9828" y2="-610.1819" gradientTransform="matrix(1 0 0 -1 0 -507.9169)">
			<stop  offset="0" style="stop-color:#A70D06"/>
			<stop  offset="1" style="stop-color:#BF1D0C"/>
		</linearGradient>
		<polygon id="triangle_x5F_91_2_" class="st27" points="31.2,85.8 0.2,96.2 0.2,96.2 27.8,108.4 27.8,108.4 		"/>
		
			<linearGradient id="triangle_x5F_96_1_" gradientUnits="userSpaceOnUse" x1="87.7459" y1="-591.7201" x2="72.4175" y2="-601.6285" gradientTransform="matrix(1 0 0 -1 0 -507.9169)">
			<stop  offset="0" style="stop-color:#FDA850"/>
			<stop  offset="1" style="stop-color:#F47835"/>
		</linearGradient>
		<polygon id="triangle_x5F_96_2_" class="st28" points="87.7,83.8 57.4,94 57.4,94 87.4,93.5 87.4,93.5 		"/>
		
			<linearGradient id="triangle_x5F_97_1_" gradientUnits="userSpaceOnUse" x1="57.4277" y1="-601.8826" x2="57.5971" y2="-608.8269" gradientTransform="matrix(1 0 0 -1 0 -507.9169)">
			<stop  offset="0" style="stop-color:#D35030"/>
			<stop  offset="1" style="stop-color:#D17F5A"/>
		</linearGradient>
		<polygon id="triangle_x5F_97_3_" class="st29" points="57.4,94 27.8,108.4 27.8,108.4 87.4,93.5 87.4,93.5 		"/>
		
			<linearGradient id="triangle_x5F_98_1_" gradientUnits="userSpaceOnUse" x1="108.5792" y1="-551.0699" x2="105.6998" y2="-568.2615" gradientTransform="matrix(1 0 0 -1 0 -507.9169)">
			<stop  offset="0" style="stop-color:#FBCCAA"/>
			<stop  offset="1" style="stop-color:#FDCB99"/>
		</linearGradient>
		<polygon id="triangle_x5F_98_2_" class="st30" points="108.6,43.2 95.4,44 95.4,44 116,76.7 116,76.7 		"/>
		
			<linearGradient id="triangle_x5F_99_2_" gradientUnits="userSpaceOnUse" x1="95.3678" y1="-551.9167" x2="101.8889" y2="-588.1633" gradientTransform="matrix(1 0 0 -1 0 -507.9169)">
			<stop  offset="0" style="stop-color:#FDD49E"/>
			<stop  offset="1" style="stop-color:#FECC86"/>
		</linearGradient>
		<polygon id="triangle_x5F_99_1_" class="st31" points="95.4,44 87.7,83.8 87.7,83.8 116,76.7 116,76.7 		"/>
		
			<linearGradient id="triangle_x5F_102_1_" gradientUnits="userSpaceOnUse" x1="87.746" y1="-591.72" x2="101.7195" y2="-592.9904" gradientTransform="matrix(1 0 0 -1 0 -507.9169)">
			<stop  offset="0" style="stop-color:#FFA95A"/>
			<stop  offset="1" style="stop-color:#FE9F51"/>
		</linearGradient>
		<polygon id="triangle_x5F_102_2_" class="st32" points="87.7,83.8 87.4,93.5 87.4,93.5 116,76.7 116,76.7 		"/>
		
			<linearGradient id="triangle_x5F_107_1_" gradientUnits="userSpaceOnUse" x1="80.4627" y1="-523.4617" x2="88.4234" y2="-524.9861" gradientTransform="matrix(1 0 0 -1 0 -507.9169)">
			<stop  offset="0" style="stop-color:#FDDDBE"/>
			<stop  offset="1" style="stop-color:#FEDDB5"/>
		</linearGradient>
		<polygon id="triangle_x5F_107_2_" class="st33" points="80.5,15.5 84.4,30.8 84.4,30.8 92.5,3.3 92.5,3.3 		"/>
		
			<linearGradient id="triangle_x5F_108_1_" gradientUnits="userSpaceOnUse" x1="84.3584" y1="-538.7055" x2="100.5338" y2="-531.1683" gradientTransform="matrix(1 0 0 -1 0 -507.9169)">
			<stop  offset="0" style="stop-color:#FCE1C1"/>
			<stop  offset="1" style="stop-color:#FAE2CE"/>
		</linearGradient>
		<polygon id="triangle_x5F_108_2_" class="st34" points="84.4,30.8 108.6,43.2 108.6,43.2 92.5,3.3 92.5,3.3 		"/>
		
			<linearGradient id="triangle_x5F_110_1_" gradientUnits="userSpaceOnUse" x1="0.1788" y1="-511.436" x2="67.7596" y2="-496.6156" gradientTransform="matrix(1 0 0 -1 0 -507.9169)">
			<stop  offset="0" style="stop-color:#E8A895"/>
			<stop  offset="1" style="stop-color:#ECBD9D"/>
		</linearGradient>
		<polygon id="triangle_x5F_110_2_" class="st35" points="0.2,3.5 54,-5.6 54,-5.6 81.5,-17 81.5,-17 		"/>
		
			<linearGradient id="triangle_x5F_113_1_" gradientUnits="userSpaceOnUse" x1="54.0403" y1="-502.2898" x2="80.9709" y2="-507.2017" gradientTransform="matrix(1 0 0 -1 0 -507.9169)">
			<stop  offset="0" style="stop-color:#F6D0BF"/>
			<stop  offset="1" style="stop-color:#F9D4C3"/>
		</linearGradient>
		<polygon id="triangle_x5F_113_2_" class="st36" points="54,-5.6 80.5,15.5 80.5,15.5 81.5,-17 81.5,-17 		"/>
		
			<linearGradient id="triangle_x5F_114_1_" gradientUnits="userSpaceOnUse" x1="80.4628" y1="-523.4617" x2="86.9838" y2="-501.1042" gradientTransform="matrix(1 0 0 -1 0 -507.9169)">
			<stop  offset="0" style="stop-color:#F8E8E7"/>
			<stop  offset="1" style="stop-color:#F4EDF6"/>
		</linearGradient>
		<polygon id="triangle_x5F_114_2_" class="st37" points="80.5,15.5 92.5,3.3 92.5,3.3 81.5,-17 81.5,-17 		"/>
	</g>
</g>
<g>
	<g>
		<path class="st38" d="M56.9,73.1H26.1c-0.2,0-0.4-0.2-0.4-0.4V41.9c0-0.2,0.2-0.4,0.4-0.4h30.8c0.2,0,0.4,0.2,0.4,0.4v30.8
			C57.3,72.9,57.1,73.1,56.9,73.1z M26.5,72.3h30v-30h-30V72.3z"/>
	</g>
	<g>
		<path class="st38" d="M72.2,57.8H41.4c-0.2,0-0.4-0.2-0.4-0.4V26.6c0-0.2,0.2-0.4,0.4-0.4h30.8c0.2,0,0.4,0.2,0.4,0.4v30.8
			C72.6,57.6,72.4,57.8,72.2,57.8z M41.8,57h30V27h-30V57z"/>
	</g>
	<g>
		<g>
			<g>
				<path class="st38" d="M56.9,42.4c-0.1,0-0.2,0-0.3-0.1c-0.2-0.2-0.2-0.4,0-0.5l15.3-15.3c0.2-0.2,0.4-0.2,0.5,0
					c0.2,0.2,0.2,0.4,0,0.5L57.2,42.2C57.1,42.3,57,42.4,56.9,42.4z"/>
			</g>
			<g>
				<path class="st38" d="M26.1,42.4c-0.1,0-0.2,0-0.3-0.1c-0.2-0.2-0.2-0.4,0-0.5l15.3-15.3c0.2-0.2,0.4-0.2,0.5,0
					c0.2,0.2,0.2,0.4,0,0.5L26.4,42.2C26.3,42.3,26.2,42.4,26.1,42.4z"/>
			</g>
		</g>
		<g>
			<g>
				<path class="st38" d="M56.9,73.1c-0.1,0-0.2,0-0.3-0.1c-0.2-0.2-0.2-0.4,0-0.5l15.3-15.3c0.2-0.2,0.4-0.2,0.5,0s0.2,0.4,0,0.5
					L57.2,73C57.1,73.1,57,73.1,56.9,73.1z"/>
			</g>
			<g>
				<path class="st38" d="M26.1,73.1c-0.1,0-0.2,0-0.3-0.1c-0.2-0.2-0.2-0.4,0-0.5l15.3-15.3c0.2-0.2,0.4-0.2,0.5,0
					c0.2,0.2,0.2,0.4,0,0.5L26.4,73C26.3,73.1,26.2,73.1,26.1,73.1z"/>
			</g>
		</g>
	</g>
</g>
</svg>
