<?xml version="1.0" encoding="utf-8"?>
<!-- Generator: Adobe Illustrator 19.0.1, SVG Export Plug-In . SVG Version: 6.00 Build 0)  -->
<svg version="1.1" id="Calque_1" xmlns="http://www.w3.org/2000/svg" xmlns:xlink="http://www.w3.org/1999/xlink" x="0px" y="0px"
	 viewBox="0 0 96.7 96.7" style="enable-background:new 0 0 96.7 96.7;" xml:space="preserve">
<style type="text/css">
	.st0{clip-path:url(#SVGID_2_);}
	.st1{fill:#AACAE7;}
	.st2{fill:#1A62C7;}
	.st3{fill:#265FBB;}
	.st4{fill:#428DD8;}
	.st5{fill:#2053B6;}
	.st6{fill:#1551C3;}
	.st7{fill:#EAEDF2;}
	.st8{fill:#BCDAF0;}
	.st9{fill:#E1EEF8;}
	.st10{fill:#D2ECFB;}
	.st11{fill:#89B4DD;}
	.st12{fill:#588FCA;}
	.st13{fill:#084EBC;}
	.st14{fill:#082D6F;}
	.st15{fill:#08408B;}
	.st16{fill:#95B7DB;}
	.st17{fill:#2973CE;}
	.st18{fill:#2D5DAE;}
	.st19{fill:#0D3ABD;}
	.st20{fill:#0C4CC4;}
	.st21{fill:#1E68EB;}
	.st22{fill:#094CBD;}
	.st23{fill:#134998;}
	.st24{fill:#1A66C3;}
	.st25{fill:#3865B1;}
	.st26{fill:#1449BC;}
	.st27{fill:#082B9E;}
	.st28{fill:#2E74C2;}
	.st29{fill:#0845BC;}
	.st30{fill:#185BD5;}
	.st31{fill:#EDEEF1;}
	.st32{fill:#F2F3F4;}
	.st33{fill:#E7ECF8;}
	.st34{fill:#75BDD6;}
	.st35{fill:#B0D9ED;}
	.st36{fill:#4AA0C4;}
	.st37{fill:#419CC4;}
	.st38{fill:#99D5F9;}
	.st39{fill:#5BB2E4;}
	.st40{fill:#C3DEF9;}
	.st41{fill:#F4F8FD;}
	.st42{fill:#BEEAFE;}
	.st43{fill:#6DB2BD;}
	.st44{fill:#4FA5D5;}
	.st45{fill:#75A5B9;}
	.st46{fill:#DEE9EE;}
	.st47{fill:#EBEEF0;}
	.st48{fill:#C3DEF0;}
	.st49{fill:#6BBAEA;}
	.st50{fill:#D8E4F3;}
	.st51{fill:#71BFED;}
	.st52{fill:#76D0F9;}
	.st53{fill:#D3FAFF;}
	.st54{fill:#67BEF2;}
	.st55{fill:#99BCD0;}
	.st56{fill:#539ACA;}
	.st57{fill:#4191E1;}
	.st58{fill:#62AFE8;}
	.st59{fill:#347EDB;}
	.st60{fill:#9DCCF8;}
	.st61{fill:#3792E5;}
	.st62{fill:#5488C1;}
	.st63{fill:#205CC5;}
	.st64{fill:#5490D6;}
	.st65{fill:#3A92E1;}
	.st66{fill:#97C4EC;}
	.st67{fill:#498ED7;}
	.st68{fill:#63C2F8;}
	.st69{fill:#297BD9;}
	.st70{fill:#0C4BD4;}
	.st71{fill:#0150C2;}
	.st72{fill:#0560C8;}
	.st73{fill:#326FC6;}
	.st74{fill:#1867E2;}
	.st75{fill:#1442A2;}
	.st76{fill:#124DCF;}
	.st77{fill:#094BC3;}
	.st78{fill:#0736B4;}
	.st79{fill:#0A5AD0;}
	.st80{fill:#043DA1;}
	.st81{fill:#0941B3;}
	.st82{fill:#184897;}
	.st83{fill:#114AD1;}
	.st84{fill:#154DCE;}
	.st85{fill:#237DE0;}
	.st86{fill:#1260D9;}
	.st87{fill:#0E3FD6;}
	.st88{fill:#104AD6;}
	.st89{fill:#0547CF;}
	.st90{fill:#115FE0;}
</style>
<g>
	<defs>
		<circle id="SVGID_1_" cx="48.4" cy="48.4" r="48.4"/>
	</defs>
	<clipPath id="SVGID_2_">
		<use xlink:href="#SVGID_1_"  style="overflow:visible;"/>
	</clipPath>
	<g class="st0">
		<g>
			<polygon class="st1" points="74.6,66.2 74.6,97.6 47.5,81.9 47.5,50.6 			"/>
			<polygon class="st2" points="74.6,66.2 101.8,50.6 101.8,81.9 74.6,97.6 			"/>
			<polygon class="st3" points="74.6,66.2 47.5,50.6 74.6,34.9 101.8,50.6 			"/>
		</g>
		<g>
			<polygon class="st4" points="47.5,19.3 47.5,50.6 20.4,34.9 20.4,3.6 			"/>
			<polygon class="st5" points="47.5,19.3 74.6,3.6 74.6,34.9 47.5,50.6 			"/>
			<polygon class="st6" points="47.5,19.3 20.4,3.6 47.5,-12.1 74.6,3.6 			"/>
		</g>
		<g>
			<polygon class="st7" points="47.5,81.9 47.5,113.2 20.4,97.6 20.4,66.2 			"/>
			<polygon class="st8" points="47.5,81.9 74.6,66.2 74.6,97.6 47.5,113.2 			"/>
			<polygon class="st9" points="47.5,81.9 20.4,66.2 47.5,50.6 74.6,66.2 			"/>
		</g>
		<g>
			<polygon class="st10" points="47.5,50.6 47.5,81.9 20.4,66.2 20.4,34.9 			"/>
			<polygon class="st11" points="47.5,50.6 74.6,34.9 74.6,66.2 47.5,81.9 			"/>
			<polygon class="st12" points="47.5,50.6 20.4,34.9 47.5,19.3 74.6,34.9 			"/>
		</g>
		<g>
			<polygon class="st13" points="88.2,42.7 88.2,58.4 74.6,50.6 74.6,34.9 			"/>
			<polygon class="st14" points="88.2,42.7 101.8,34.9 101.8,50.6 88.2,58.4 			"/>
			<polygon class="st15" points="88.2,42.7 74.6,34.9 88.2,27.1 101.8,34.9 			"/>
		</g>
		<g>
			<polygon class="st16" points="61.1,42.7 61.1,58.4 47.5,50.6 47.5,34.9 			"/>
			<polygon class="st17" points="61.1,42.7 74.6,34.9 74.6,50.6 61.1,58.4 			"/>
			<polygon class="st18" points="61.1,42.7 47.5,34.9 61.1,27.1 74.6,34.9 			"/>
		</g>
		<g>
			<polygon class="st19" points="74.6,19.3 74.6,34.9 61.1,27.1 61.1,11.4 			"/>
			<polygon class="st20" points="74.6,19.3 88.2,11.4 88.2,27.1 74.6,34.9 			"/>
			<polygon class="st21" points="74.6,19.3 61.1,11.4 74.6,3.6 88.2,11.4 			"/>
		</g>
		<g>
			<polygon class="st22" points="88.2,27.1 88.2,42.7 74.6,34.9 74.6,19.3 			"/>
			<polygon class="st23" points="88.2,27.1 101.8,19.3 101.8,34.9 88.2,42.7 			"/>
			<polygon class="st24" points="88.2,27.1 74.6,19.3 88.2,11.4 101.8,19.3 			"/>
		</g>
		<g>
			<polygon class="st25" points="61.1,27.1 61.1,42.7 47.5,34.9 47.5,19.3 			"/>
			<polygon class="st26" points="61.1,27.1 74.6,19.3 74.6,34.9 61.1,42.7 			"/>
			<polygon class="st27" points="61.1,27.1 47.5,19.3 61.1,11.4 74.6,19.3 			"/>
		</g>
		<g>
			<polygon class="st28" points="74.6,50.6 74.6,66.2 61.1,58.4 61.1,42.7 			"/>
			<polygon class="st29" points="74.6,50.6 88.2,42.7 88.2,58.4 74.6,66.2 			"/>
			<polygon class="st30" points="74.6,50.6 61.1,42.7 74.6,34.9 88.2,42.7 			"/>
		</g>
		<g>
			<polygon class="st31" points="33.9,74.1 33.9,89.7 20.4,81.9 20.4,66.2 			"/>
			<polygon class="st32" points="33.9,74.1 47.5,66.2 47.5,81.9 33.9,89.7 			"/>
			<polygon class="st33" points="33.9,74.1 20.4,66.2 33.9,58.4 47.5,66.2 			"/>
		</g>
		<g>
			<polygon class="st34" points="6.8,74.1 6.8,89.7 -6.7,81.9 -6.7,66.2 			"/>
			<polygon class="st35" points="6.8,74.1 20.4,66.2 20.4,81.9 6.8,89.7 			"/>
			<polygon class="st36" points="6.8,74.1 -6.7,66.2 6.8,58.4 20.4,66.2 			"/>
		</g>
		<g>
			<polygon class="st37" points="20.4,50.6 20.4,66.2 6.8,58.4 6.8,42.7 			"/>
			<polygon class="st38" points="20.4,50.6 33.9,42.7 33.9,58.4 20.4,66.2 			"/>
			<polygon class="st39" points="20.4,50.6 6.8,42.7 20.4,34.9 33.9,42.7 			"/>
		</g>
		<g>
			<polygon class="st40" points="33.9,58.4 33.9,74.1 20.4,66.2 20.4,50.6 			"/>
			<polygon class="st41" points="33.9,58.4 47.5,50.6 47.5,66.2 33.9,74.1 			"/>
			<polygon class="st42" points="33.9,58.4 20.4,50.6 33.9,42.7 47.5,50.6 			"/>
		</g>
		<g>
			<polygon class="st43" points="6.8,58.4 6.8,74.1 -6.7,66.2 -6.7,50.6 			"/>
			<polygon class="st44" points="6.8,58.4 20.4,50.6 20.4,66.2 6.8,74.1 			"/>
			<polygon class="st45" points="6.8,58.4 -6.7,50.6 6.8,42.7 20.4,50.6 			"/>
		</g>
		<g>
			<polygon class="st46" points="20.4,81.9 20.4,97.6 6.8,89.7 6.8,74.1 			"/>
			<polygon class="st47" points="20.4,81.9 33.9,74.1 33.9,89.7 20.4,97.6 			"/>
			<polygon class="st48" points="20.4,81.9 6.8,74.1 20.4,66.2 33.9,74.1 			"/>
		</g>
		<g>
			<polygon class="st49" points="20.4,66.2 20.4,81.9 6.8,74.1 6.8,58.4 			"/>
			<polygon class="st50" points="20.4,66.2 33.9,58.4 33.9,74.1 20.4,81.9 			"/>
			<polygon class="st51" points="20.4,66.2 6.8,58.4 20.4,50.6 33.9,58.4 			"/>
		</g>
		<g>
			<polygon class="st52" points="33.9,42.7 33.9,58.4 20.4,50.6 20.4,34.9 			"/>
			<polygon class="st53" points="33.9,42.7 47.5,34.9 47.5,50.6 33.9,58.4 			"/>
			<polygon class="st54" points="33.9,42.7 20.4,34.9 33.9,27.1 47.5,34.9 			"/>
		</g>
		<g>
			<polygon class="st55" points="6.8,42.7 6.8,58.4 -6.7,50.6 -6.7,34.9 			"/>
			<polygon class="st56" points="6.8,42.7 20.4,34.9 20.4,50.6 6.8,58.4 			"/>
			<polygon class="st57" points="6.8,42.7 -6.7,34.9 6.8,27.1 20.4,34.9 			"/>
		</g>
		<g>
			<polygon class="st58" points="20.4,19.3 20.4,34.9 6.8,27.1 6.8,11.4 			"/>
			<polygon class="st59" points="20.4,19.3 33.9,11.4 33.9,27.1 20.4,34.9 			"/>
			<polygon class="st60" points="20.4,19.3 6.8,11.4 20.4,3.6 33.9,11.4 			"/>
		</g>
		<g>
			<polygon class="st61" points="33.9,27.1 33.9,42.7 20.4,34.9 20.4,19.3 			"/>
			<polygon class="st62" points="33.9,27.1 47.5,19.3 47.5,34.9 33.9,42.7 			"/>
			<polygon class="st63" points="33.9,27.1 20.4,19.3 33.9,11.4 47.5,19.3 			"/>
		</g>
		<g>
			<polygon class="st64" points="6.8,27.1 6.8,42.7 -6.7,34.9 -6.7,19.3 			"/>
			<polygon class="st65" points="6.8,27.1 20.4,19.3 20.4,34.9 6.8,42.7 			"/>
			<polygon class="st66" points="6.8,27.1 -6.7,19.3 6.8,11.4 20.4,19.3 			"/>
		</g>
		<g>
			<polygon class="st37" points="20.4,50.6 20.4,66.2 6.8,58.4 6.8,42.7 			"/>
			<polygon class="st38" points="20.4,50.6 33.9,42.7 33.9,58.4 20.4,66.2 			"/>
			<polygon class="st39" points="20.4,50.6 6.8,42.7 20.4,34.9 33.9,42.7 			"/>
		</g>
		<g>
			<polygon class="st67" points="20.4,34.9 20.4,50.6 6.8,42.7 6.8,27.1 			"/>
			<polygon class="st68" points="20.4,34.9 33.9,27.1 33.9,42.7 20.4,50.6 			"/>
			<polygon class="st69" points="20.4,34.9 6.8,27.1 20.4,19.3 33.9,27.1 			"/>
		</g>
		<g>
			<polygon class="st70" points="81.4,38.8 81.4,46.7 74.6,42.7 74.6,34.9 			"/>
			<polygon class="st71" points="81.4,38.8 88.2,34.9 88.2,42.7 81.4,46.7 			"/>
			<polygon class="st72" points="81.4,38.8 74.6,34.9 81.4,31 88.2,34.9 			"/>
		</g>
		<g>
			<polygon class="st73" points="67.9,38.8 67.9,46.7 61.1,42.7 61.1,34.9 			"/>
			<polygon class="st74" points="67.9,38.8 74.6,34.9 74.6,42.7 67.9,46.7 			"/>
			<polygon class="st75" points="67.9,38.8 61.1,34.9 67.9,31 74.6,34.9 			"/>
		</g>
		<g>
			<polygon class="st76" points="74.6,27.1 74.6,34.9 67.9,31 67.9,23.2 			"/>
			<polygon class="st77" points="74.6,27.1 81.4,23.2 81.4,31 74.6,34.9 			"/>
			<polygon class="st78" points="74.6,27.1 67.9,23.2 74.6,19.3 81.4,23.2 			"/>
		</g>
		<g>
			<polygon class="st79" points="81.4,31 81.4,38.8 74.6,34.9 74.6,27.1 			"/>
			<polygon class="st80" points="81.4,31 88.2,27.1 88.2,34.9 81.4,38.8 			"/>
			<polygon class="st81" points="81.4,31 74.6,27.1 81.4,23.2 88.2,27.1 			"/>
		</g>
		<g>
			<polygon class="st82" points="67.9,31 67.9,38.8 61.1,34.9 61.1,27.1 			"/>
			<polygon class="st83" points="67.9,31 74.6,27.1 74.6,34.9 67.9,38.8 			"/>
			<polygon class="st84" points="67.9,31 61.1,27.1 67.9,23.2 74.6,27.1 			"/>
		</g>
		<g>
			<polygon class="st85" points="74.6,42.7 74.6,50.6 67.9,46.7 67.9,38.8 			"/>
			<polygon class="st86" points="74.6,42.7 81.4,38.8 81.4,46.7 74.6,50.6 			"/>
			<polygon class="st87" points="74.6,42.7 67.9,38.8 74.6,34.9 81.4,38.8 			"/>
		</g>
		<g>
			<polygon class="st88" points="74.6,34.9 74.6,42.7 67.9,38.8 67.9,31 			"/>
			<polygon class="st89" points="74.6,34.9 81.4,31 81.4,38.8 74.6,42.7 			"/>
			<polygon class="st90" points="74.6,34.9 67.9,31 74.6,27.1 81.4,31 			"/>
		</g>
	</g>
</g>
<g>
	<g>
		<g>
			<path d="M26.6,73c0,0-0.1,0-0.1,0c-0.1-0.1-0.2-0.2-0.2-0.4V27.8c0-0.2,0.2-0.4,0.4-0.4h44.8c0.2,0,0.3,0.1,0.4,0.2
				c0.1,0.1,0,0.3-0.1,0.4L26.9,72.9C26.8,73,26.7,73,26.6,73z M27,28.2v43.5l43.5-43.5H27z"/>
		</g>
		<g>
			<path d="M71.4,73H26.6c-0.2,0-0.4-0.2-0.4-0.4V27.8c0-0.2,0.2-0.4,0.4-0.4h44.8c0.2,0,0.4,0.2,0.4,0.4v44.8
				C71.8,72.9,71.6,73,71.4,73z M27,72.3H71V28.2H27V72.3z"/>
		</g>
	</g>
	<g>
		<path d="M66.9,63.6C66.9,63.6,66.9,63.6,66.9,63.6H31.2c-0.1,0-0.3-0.1-0.3-0.2c-0.1-0.1-0.1-0.3,0-0.4L48.7,37
			c0.1-0.2,0.5-0.2,0.6,0l17.8,25.9c0.1,0.1,0.1,0.2,0.1,0.3C67.3,63.4,67.1,63.6,66.9,63.6z M31.9,62.8h34.2L49,37.9L31.9,62.8z"/>
	</g>
</g>
</svg>
