<?xml version="1.0" encoding="utf-8"?>
<!-- Generator: Adobe Illustrator 19.0.1, SVG Export Plug-In . SVG Version: 6.00 Build 0)  -->
<svg version="1.1" id="Layer_2" xmlns="http://www.w3.org/2000/svg" xmlns:xlink="http://www.w3.org/1999/xlink" x="0px" y="0px"
	 viewBox="0 0 500 400" style="enable-background:new 0 0 500 400;" xml:space="preserve">
<style type="text/css">
	.st0{display:none;fill:#FFFFFF;}
	.st1{opacity:0;fill:#FFFFFF;}
	.st2{opacity:2.439000e-002;fill:#FEFEFE;}
	.st3{opacity:4.878000e-002;fill:#FDFDFD;}
	.st4{opacity:7.317100e-002;fill:#FCFCFC;}
	.st5{opacity:9.756100e-002;fill:#FBFBFB;}
	.st6{opacity:0.122;fill:#F9FAFA;}
	.st7{opacity:0.1463;fill:#F8F9F9;}
	.st8{opacity:0.1707;fill:#F7F7F8;}
	.st9{opacity:0.1951;fill:#F6F6F7;}
	.st10{opacity:0.2195;fill:#F5F5F6;}
	.st11{opacity:0.2439;fill:#F4F4F5;}
	.st12{opacity:0.2683;fill:#F3F3F3;}
	.st13{opacity:0.2927;fill:#F2F2F2;}
	.st14{opacity:0.3171;fill:#F0F1F1;}
	.st15{opacity:0.3415;fill:#EFF0F0;}
	.st16{opacity:0.3659;fill:#EEEFEF;}
	.st17{opacity:0.3902;fill:#EDEEEE;}
	.st18{opacity:0.4146;fill:#ECEDED;}
	.st19{opacity:0.439;fill:#EBECEC;}
	.st20{opacity:0.4634;fill:#EAEBEB;}
	.st21{opacity:0.4878;fill:#E9EAEA;}
	.st22{opacity:0.5122;fill:#E7E8E9;}
	.st23{opacity:0.5366;fill:#E6E7E8;}
	.st24{opacity:0.561;fill:#E5E6E7;}
	.st25{opacity:0.5854;fill:#E4E5E6;}
	.st26{opacity:0.6098;fill:#E3E4E5;}
	.st27{opacity:0.6341;fill:#E2E3E4;}
	.st28{opacity:0.6585;fill:#E1E2E3;}
	.st29{opacity:0.6829;fill:#E0E1E2;}
	.st30{opacity:0.7073;fill:#DEE0E1;}
	.st31{opacity:0.7317;fill:#DDDFE0;}
	.st32{opacity:0.7561;fill:#DCDEDE;}
	.st33{opacity:0.7805;fill:#DBDDDD;}
	.st34{opacity:0.8049;fill:#DADCDC;}
	.st35{opacity:0.8293;fill:#D9DBDB;}
	.st36{opacity:0.8537;fill:#D8D9DA;}
	.st37{opacity:0.878;fill:#D7D8D9;}
	.st38{opacity:0.9024;fill:#D5D7D8;}
	.st39{opacity:0.9268;fill:#D4D6D7;}
	.st40{opacity:0.9512;fill:#D3D5D6;}
	.st41{opacity:0.9756;fill:#D2D4D5;}
	.st42{fill:#D1D3D4;}
	.st43{fill:#0095BB;}
	.st44{fill:#00B4D7;}
	.st45{fill:#006085;}
	.st46{fill:#0086AC;}
	.st47{fill:#009AC0;}
	.st48{fill:#00DBF4;}
	.st49{fill:#00496A;}
	.st50{fill:#003854;}
	.st51{fill:#006A90;}
	.st52{fill:#004869;}
	.st53{fill:#1D1D1B;}
</style>
<rect x="0" y="0" class="st0" width="500" height="400"/>
<g>
	<ellipse class="st1" cx="249.2" cy="310.1" rx="99.1" ry="6.8"/>
	<ellipse class="st2" cx="249.2" cy="310.1" rx="97.6" ry="6.7"/>
	<ellipse class="st3" cx="249.2" cy="310.1" rx="96.2" ry="6.6"/>
	<ellipse class="st4" cx="249.2" cy="310.1" rx="94.7" ry="6.4"/>
	<ellipse class="st5" cx="249.2" cy="310.1" rx="93.3" ry="6.3"/>
	<ellipse class="st6" cx="249.2" cy="310.1" rx="91.8" ry="6.1"/>
	<ellipse class="st7" cx="249.2" cy="310.1" rx="90.4" ry="6"/>
	<ellipse class="st8" cx="249.2" cy="310.1" rx="88.9" ry="5.9"/>
	<ellipse class="st9" cx="249.2" cy="310.1" rx="87.5" ry="5.7"/>
	<ellipse class="st10" cx="249.2" cy="310.1" rx="86" ry="5.6"/>
	<ellipse class="st11" cx="249.2" cy="310.1" rx="84.6" ry="5.4"/>
	<ellipse class="st12" cx="249.2" cy="310.1" rx="83.1" ry="5.3"/>
	<ellipse class="st13" cx="249.2" cy="310.1" rx="81.7" ry="5.1"/>
	<ellipse class="st14" cx="249.2" cy="310.1" rx="80.2" ry="5"/>
	<ellipse class="st15" cx="249.2" cy="310.1" rx="78.8" ry="4.9"/>
	<ellipse class="st16" cx="249.2" cy="310.1" rx="77.3" ry="4.7"/>
	<ellipse class="st17" cx="249.2" cy="310.1" rx="75.9" ry="4.6"/>
	<ellipse class="st18" cx="249.2" cy="310.1" rx="74.4" ry="4.4"/>
	<ellipse class="st19" cx="249.2" cy="310.1" rx="73" ry="4.3"/>
	<ellipse class="st20" cx="249.2" cy="310.1" rx="71.5" ry="4.2"/>
	<ellipse class="st21" cx="249.2" cy="310.1" rx="70.1" ry="4"/>
	<ellipse class="st22" cx="249.2" cy="310.1" rx="68.6" ry="3.9"/>
	<ellipse class="st23" cx="249.2" cy="310.1" rx="67.2" ry="3.7"/>
	<ellipse class="st24" cx="249.2" cy="310.1" rx="65.7" ry="3.6"/>
	<ellipse class="st25" cx="249.2" cy="310.1" rx="64.3" ry="3.5"/>
	<ellipse class="st26" cx="249.2" cy="310.1" rx="62.8" ry="3.3"/>
	<ellipse class="st27" cx="249.2" cy="310.1" rx="61.4" ry="3.2"/>
	<ellipse class="st28" cx="249.2" cy="310.1" rx="60" ry="3"/>
	<ellipse class="st29" cx="249.2" cy="310.1" rx="58.5" ry="2.9"/>
	<ellipse class="st30" cx="249.2" cy="310.1" rx="57.1" ry="2.7"/>
	<ellipse class="st31" cx="249.2" cy="310.1" rx="55.6" ry="2.6"/>
	<ellipse class="st32" cx="249.2" cy="310.1" rx="54.2" ry="2.5"/>
	<ellipse class="st33" cx="249.2" cy="310.1" rx="52.7" ry="2.3"/>
	<ellipse class="st34" cx="249.2" cy="310.1" rx="51.3" ry="2.2"/>
	<ellipse class="st35" cx="249.2" cy="310.1" rx="49.8" ry="2"/>
	<ellipse class="st36" cx="249.2" cy="310.1" rx="48.4" ry="1.9"/>
	<ellipse class="st37" cx="249.2" cy="310.1" rx="46.9" ry="1.8"/>
	<ellipse class="st38" cx="249.2" cy="310.1" rx="45.5" ry="1.6"/>
	<ellipse class="st39" cx="249.2" cy="310.1" rx="44" ry="1.5"/>
	<ellipse class="st40" cx="249.2" cy="310.1" rx="42.6" ry="1.3"/>
	<ellipse class="st41" cx="249.2" cy="310.1" rx="41.1" ry="1.2"/>
	<ellipse class="st42" cx="249.2" cy="310.1" rx="39.7" ry="1.1"/>
</g>
<g>
	<polygon class="st43" points="227.4,200.4 295.1,181.4 268.7,236.7 	"/>
	<polygon class="st44" points="227.4,200.4 244.6,131.9 295.1,181.4 	"/>
	<polygon class="st45" points="244.6,131.9 227.4,200.4 187,156.5 	"/>
	<polygon class="st46" points="295.1,181.4 311.4,190.6 268.7,236.7 	"/>
	<polygon class="st47" points="295.1,181.4 296.5,125.8 311.4,190.6 	"/>
	<polygon class="st48" points="296.5,125.8 295.1,181.4 244.6,131.9 	"/>
	<polygon class="st49" points="201.9,221.3 227.4,200.4 268.7,236.7 	"/>
	<polygon class="st50" points="201.9,221.3 187,156.5 227.4,200.4 	"/>
	<polygon class="st51" points="229.8,110.4 296.5,125.8 244.6,131.9 	"/>
	<polygon class="st52" points="229.8,110.4 244.6,131.9 187,156.5 	"/>
</g>
<path class="st53" d="M332.7,200.1c0-0.1,0-0.3-0.1-0.4l-20.9-90.9c0-0.1-0.1-0.1-0.1-0.2c0-0.1,0-0.1-0.1-0.1
	c-0.1-0.1-0.2-0.1-0.3-0.2c0,0,0,0-0.1-0.1l-93.8-21.7c0,0,0,0,0,0c0,0,0,0-0.1,0c-0.2,0-0.4,0.1-0.6,0.2l-60.1,64.8
	c0,0,0,0.1,0,0.1c0,0.1-0.1,0.1-0.1,0.2c0,0,0,0,0,0c0,0,0,0,0,0c0,0.1,0,0.1,0,0.2c0,0,0,0.1,0,0.1l21,91.1
	c0.1,0.2,0.2,0.4,0.5,0.5c0,0,0,0,0.1,0c0,0,0,0,0,0l93.8,21.7c0.1,0,0.1,0,0.2,0c0,0,0,0,0,0c0,0,0,0,0,0c0,0,0.1,0,0.1,0
	c0,0,0.1-0.1,0.1-0.1c0.1,0,0.3-0.1,0.4-0.2l60-64.7C332.6,200.5,332.7,200.3,332.7,200.1z M217.1,88.5l19.8,28.7l-77,33L217.1,88.5
	z M310.3,109.8l-0.7,25.2l-1.3,50.5l-20.3-20l-48.4-47.5L310.3,109.8z M307.6,186.9l-92.7,26l23.6-93.9l20.7,20.3L307.6,186.9z
	 M158.3,152.5l78.6-33.7l-23.5,93.7l-44.1-48L158.3,152.5z M279.6,196.2l28.1-7.9l-35.9,75.4l-56.4-49.5L279.6,196.2z M251.1,115.3
	l-12.7,1.5l-19.5-28.3l88,20.3L251.1,115.3z M309.3,188.2l21.6,12.1L274.6,261L309.3,188.2z M309.7,186.8l1.9-72.1l19.3,84
	L309.7,186.8z M158.4,154.7l54.4,59.2L178.5,242L158.4,154.7z M179.7,242.9l34.2-28.1l55.5,48.7L179.7,242.9z"/>
</svg>
