<?xml version="1.0" encoding="utf-8"?>
<!-- Generator: Adobe Illustrator 19.0.1, SVG Export Plug-In . SVG Version: 6.00 Build 0)  -->
<svg version="1.1" id="Calque_1" xmlns="http://www.w3.org/2000/svg" xmlns:xlink="http://www.w3.org/1999/xlink" x="0px" y="0px"
	 viewBox="0 0 97.8 97.8" style="enable-background:new 0 0 97.8 97.8;" xml:space="preserve">
<style type="text/css">
	.st0{clip-path:url(#SVGID_2_);}
	.st1{fill:#A5658C;}
	.st2{fill:#BE81AF;}
	.st3{fill:#B07DA6;}
	.st4{fill:#B39AC1;}
	.st5{fill:#CCB0D6;}
	.st6{fill:#C4B2D9;}
	.st7{fill:#CDABD2;}
	.st8{fill:#C1C1E4;}
	.st9{fill:#D9CBEA;}
	.st10{fill:#BC79A8;}
	.st11{fill:#A77EAB;}
	.st12{fill:#C28CBA;}
	.st13{fill:#BF93BD;}
	.st14{fill:#B594BF;}
	.st15{fill:#B399BF;}
	.st16{fill:#6A4367;}
	.st17{fill:#9E6B94;}
	.st18{fill:#412248;}
	.st19{fill:#2E1837;}
	.st20{fill:#9383A2;}
	.st21{fill:#5F4D6A;}
	.st22{fill:#A38AAB;}
	.st23{fill:#B6A4CD;}
	.st24{fill:#A9A0C4;}
	.st25{fill:#482950;}
	.st26{fill:#532F56;}
	.st27{fill:#53315A;}
	.st28{fill:#BB86B1;}
	.st29{fill:#C08AB7;}
	.st30{fill:#7E4E7A;}
	.st31{fill:#AC86AA;}
	.st32{fill:#9184B1;}
	.st33{fill:#8384B5;}
	.st34{fill:#A5A4CE;}
	.st35{fill:#B074A1;}
	.st36{fill:#9A76A1;}
	.st37{fill:#C395C4;}
	.st38{fill:#CBA9D2;}
	.st39{fill:#B1ACD3;}
	.st40{fill:#A9A3CB;}
	.st41{fill:#AAADD7;}
	.st42{fill:#B7B7DC;}
	.st43{fill:#CF9CC8;}
	.st44{fill:#B599C4;}
	.st45{fill:#D5ABD1;}
	.st46{fill:#936E97;}
	.st47{fill:#8A7DAB;}
	.st48{fill:#9786B2;}
	.st49{fill:#A386B3;}
	.st50{fill:#B3A2CB;}
	.st51{fill:#BB7CA8;}
	.st52{fill:#C58FBD;}
	.st53{fill:#BC93BF;}
	.st54{fill:#B99CC6;}
	.st55{fill:#C3A4CC;}
	.st56{fill:#C39AC1;}
	.st57{fill:#D1B0D7;}
	.st58{fill:#C9AED4;}
	.st59{fill:#C589B9;}
	.st60{fill:#C08AB9;}
	.st61{fill:#C694BF;}
	.st62{fill:#BC91BD;}
	.st63{fill:#C79AC3;}
	.st64{fill:#FFFFFF;}
</style>
<g>
	<defs>
		<circle id="SVGID_1_" cx="48.9" cy="48.9" r="48.9"/>
	</defs>
	<clipPath id="SVGID_2_">
		<use xlink:href="#SVGID_1_"  style="overflow:visible;"/>
	</clipPath>
	<g class="st0">
		<g>
			<polygon class="st1" points="25.4,64.3 25.4,95.4 -1.5,79.9 -1.5,48.8 			"/>
			<polygon class="st2" points="25.4,64.3 52.4,48.8 52.4,79.9 25.4,95.4 			"/>
			<polygon class="st3" points="25.4,64.3 -1.5,48.8 25.4,33.3 52.4,48.8 			"/>
		</g>
		<g>
			<polygon class="st4" points="52.4,17.7 52.4,48.8 25.4,33.3 25.4,2.2 			"/>
			<polygon class="st5" points="52.4,17.7 79.3,2.2 79.3,33.3 52.4,48.8 			"/>
			<polygon class="st6" points="52.4,17.7 25.4,2.2 52.4,-13.3 79.3,2.2 			"/>
		</g>
		<g>
			<polygon class="st7" points="79.3,33.3 79.3,64.3 52.4,48.8 52.4,17.7 			"/>
			<polygon class="st8" points="79.3,33.3 106.2,17.7 106.2,48.8 79.3,64.3 			"/>
			<polygon class="st9" points="79.3,33.3 52.4,17.7 79.3,2.2 106.2,17.7 			"/>
		</g>
		<g>
			<polygon class="st10" points="52.4,79.9 52.4,111 25.4,95.4 25.4,64.3 			"/>
			<polygon class="st11" points="52.4,79.9 79.3,64.3 79.3,95.4 52.4,111 			"/>
			<polygon class="st12" points="52.4,79.9 25.4,64.3 52.4,48.8 79.3,64.3 			"/>
		</g>
		<g>
			<polygon class="st13" points="38.9,41 38.9,56.6 25.4,48.8 25.4,33.3 			"/>
			<polygon class="st14" points="38.9,41 52.4,33.3 52.4,48.8 38.9,56.6 			"/>
			<polygon class="st15" points="38.9,41 25.4,33.3 38.9,25.5 52.4,33.3 			"/>
		</g>
		<g>
			<polygon class="st16" points="12,41 12,56.6 -1.5,48.8 -1.5,33.3 			"/>
			<polygon class="st17" points="12,41 25.4,33.3 25.4,48.8 12,56.6 			"/>
			<polygon class="st18" points="12,41 -1.5,33.3 12,25.5 25.4,33.3 			"/>
		</g>
		<g>
			<polygon class="st19" points="25.4,17.7 25.4,33.3 12,25.5 12,10 			"/>
			<polygon class="st20" points="25.4,17.7 38.9,10 38.9,25.5 25.4,33.3 			"/>
			<polygon class="st21" points="25.4,17.7 12,10 25.4,2.2 38.9,10 			"/>
		</g>
		<g>
			<polygon class="st22" points="38.9,25.5 38.9,41 25.4,33.3 25.4,17.7 			"/>
			<polygon class="st23" points="38.9,25.5 52.4,17.7 52.4,33.3 38.9,41 			"/>
			<polygon class="st24" points="38.9,25.5 25.4,17.7 38.9,10 52.4,17.7 			"/>
		</g>
		<g>
			<polygon class="st25" points="12,25.5 12,41 -1.5,33.3 -1.5,17.7 			"/>
			<polygon class="st26" points="12,25.5 25.4,17.7 25.4,33.3 12,41 			"/>
			<polygon class="st27" points="12,25.5 -1.5,17.7 12,10 25.4,17.7 			"/>
		</g>
		<g>
			<polygon class="st28" points="25.4,48.8 38.9,41 38.9,56.6 25.4,64.3 			"/>
			<polygon class="st29" points="25.4,48.8 12,41 25.4,33.3 38.9,41 			"/>
		</g>
		<g>
			<polygon class="st30" points="25.4,33.3 25.4,48.8 12,41 12,25.5 			"/>
			<polygon class="st31" points="25.4,33.3 38.9,25.5 38.9,41 25.4,48.8 			"/>
		</g>
		<g>
			<polygon class="st32" points="92.7,72.1 92.7,87.7 79.3,79.9 79.3,64.3 			"/>
			<polygon class="st33" points="92.7,72.1 106.2,64.3 106.2,79.9 92.7,87.7 			"/>
			<polygon class="st34" points="92.7,72.1 79.3,64.3 92.7,56.6 106.2,64.3 			"/>
		</g>
		<g>
			<polygon class="st35" points="65.8,72.1 65.8,87.7 52.4,79.9 52.4,64.3 			"/>
			<polygon class="st36" points="65.8,72.1 79.3,64.3 79.3,79.9 65.8,87.7 			"/>
			<polygon class="st37" points="65.8,72.1 52.4,64.3 65.8,56.6 79.3,64.3 			"/>
		</g>
		<g>
			<polygon class="st38" points="79.3,48.8 79.3,64.3 65.8,56.6 65.8,41 			"/>
			<polygon class="st39" points="79.3,48.8 92.7,41 92.7,56.6 79.3,64.3 			"/>
		</g>
		<g>
			<polygon class="st40" points="92.7,56.6 92.7,72.1 79.3,64.3 79.3,48.8 			"/>
			<polygon class="st41" points="92.7,56.6 106.2,48.8 106.2,64.3 92.7,72.1 			"/>
			<polygon class="st42" points="92.7,56.6 79.3,48.8 92.7,41 106.2,48.8 			"/>
		</g>
		<g>
			<polygon class="st43" points="65.8,56.6 65.8,72.1 52.4,64.3 52.4,48.8 			"/>
			<polygon class="st44" points="65.8,56.6 79.3,48.8 79.3,64.3 65.8,72.1 			"/>
			<polygon class="st45" points="65.8,56.6 52.4,48.8 65.8,41 79.3,48.8 			"/>
		</g>
		<g>
			<polygon class="st46" points="79.3,79.9 79.3,95.4 65.8,87.7 65.8,72.1 			"/>
			<polygon class="st47" points="79.3,79.9 92.7,72.1 92.7,87.7 79.3,95.4 			"/>
			<polygon class="st48" points="79.3,79.9 65.8,72.1 79.3,64.3 92.7,72.1 			"/>
		</g>
		<g>
			<polygon class="st49" points="79.3,64.3 79.3,79.9 65.8,72.1 65.8,56.6 			"/>
			<polygon class="st50" points="79.3,64.3 65.8,56.6 79.3,48.8 92.7,56.6 			"/>
		</g>
		<g>
			<polygon class="st43" points="65.8,56.6 65.8,72.1 52.4,64.3 52.4,48.8 			"/>
			<polygon class="st44" points="65.8,56.6 79.3,48.8 79.3,64.3 65.8,72.1 			"/>
			<polygon class="st45" points="65.8,56.6 52.4,48.8 65.8,41 79.3,48.8 			"/>
		</g>
		<g>
			<polygon class="st51" points="38.9,56.6 38.9,72.1 25.4,64.3 25.4,48.8 			"/>
			<polygon class="st52" points="38.9,56.6 52.4,48.8 52.4,64.3 38.9,72.1 			"/>
			<polygon class="st53" points="38.9,56.6 25.4,48.8 38.9,41 52.4,48.8 			"/>
		</g>
		<g>
			<polygon class="st54" points="52.4,33.3 52.4,48.8 38.9,41 38.9,25.5 			"/>
			<polygon class="st55" points="52.4,33.3 65.8,25.5 65.8,41 52.4,48.8 			"/>
		</g>
		<g>
			<polygon class="st56" points="65.8,41 65.8,56.6 52.4,48.8 52.4,33.3 			"/>
			<polygon class="st57" points="65.8,41 79.3,33.3 79.3,48.8 65.8,56.6 			"/>
			<polygon class="st58" points="65.8,41 52.4,33.3 65.8,25.5 79.3,33.3 			"/>
		</g>
		<g>
			<polygon class="st14" points="38.9,41 52.4,33.3 52.4,48.8 38.9,56.6 			"/>
			<polygon class="st15" points="38.9,41 25.4,33.3 38.9,25.5 52.4,33.3 			"/>
		</g>
		<g>
			<polygon class="st59" points="52.4,64.3 52.4,79.9 38.9,72.1 38.9,56.6 			"/>
			<polygon class="st60" points="52.4,64.3 65.8,56.6 65.8,72.1 52.4,79.9 			"/>
			<polygon class="st61" points="52.4,64.3 38.9,56.6 52.4,48.8 65.8,56.6 			"/>
		</g>
		<g>
			<polygon class="st62" points="52.4,48.8 52.4,64.3 38.9,56.6 38.9,41 			"/>
			<polygon class="st63" points="52.4,48.8 65.8,41 65.8,56.6 52.4,64.3 			"/>
		</g>
	</g>
</g>
<g>
	<g>
		<g>
			<path class="st64" d="M49.4,70.4c-0.1,0-0.2-0.1-0.3-0.2L27,40.7c-0.1-0.1-0.1-0.3,0-0.4c0.1-0.1,0.2-0.2,0.3-0.2h44.1
				c0.1,0,0.3,0.1,0.3,0.2c0.1,0.1,0.1,0.3,0,0.4l-22,29.6C49.6,70.3,49.5,70.4,49.4,70.4z M28.1,40.8l21.3,28.6l21.3-28.6H28.1z"/>
		</g>
		<g>
			<path class="st64" d="M49.4,70.4c-0.1,0-0.2-0.1-0.3-0.2L27,40.7c-0.1-0.1-0.1-0.3,0-0.4c0.1-0.1,0.2-0.2,0.3-0.2h12.4
				c0.2,0,0.3,0.1,0.4,0.3l9.6,29.5c0,0.1,0.1,0.1,0.1,0.2C49.8,70.2,49.6,70.4,49.4,70.4C49.4,70.4,49.4,70.4,49.4,70.4z
				 M28.1,40.8l20.2,27.1l-8.8-27.1H28.1z"/>
		</g>
		<g>
			<path class="st64" d="M49.2,70.4c-0.1,0-0.1,0-0.2,0c-0.2-0.1-0.2-0.3-0.2-0.5l9.7-29.6c0.1-0.2,0.2-0.3,0.4-0.3h12.4
				c0.1,0,0.3,0.1,0.3,0.2c0.1,0.1,0.1,0.3,0,0.4l-22,29.6C49.5,70.4,49.4,70.4,49.2,70.4z M59.2,40.8l-8.8,27.1l20.2-27.1H59.2z"/>
		</g>
	</g>
	<g>
		<path class="st64" d="M39.7,40.8H27.3c-0.2,0-0.3-0.1-0.4-0.2c-0.1-0.1,0-0.3,0.1-0.4l8.2-7.7c0.1-0.1,0.2-0.1,0.3-0.1h7.8
			c0.1,0,0.3,0.1,0.3,0.2c0.1,0.1,0.1,0.3,0,0.4l-3.6,7.7C40,40.7,39.9,40.8,39.7,40.8z M28.3,40h11.2l3.3-7h-7L28.3,40z"/>
	</g>
	<g>
		<path class="st64" d="M71.3,40.8H58.9c-0.2,0-0.3-0.1-0.4-0.2l-3.6-7.7c-0.1-0.1,0-0.3,0-0.4c0.1-0.1,0.2-0.2,0.3-0.2H63
			c0.1,0,0.2,0,0.3,0.1l8.2,7.7c0.1,0.1,0.2,0.3,0.1,0.4C71.6,40.7,71.4,40.8,71.3,40.8z M59.1,40h11.2l-7.4-7h-7L59.1,40z"/>
	</g>
	<g>
		<path class="st64" d="M71.4,40.8H27.3c-0.2,0-0.3-0.1-0.4-0.2c-0.1-0.1,0-0.3,0.1-0.4l8.2-7.7c0.1-0.1,0.2-0.1,0.3-0.1h27.6
			c0.1,0,0.2,0,0.3,0.1l8.2,7.7c0.1,0.1,0.2,0.3,0.1,0.4C71.7,40.7,71.6,40.8,71.4,40.8z M28.3,40h42.1l-7.4-7H35.7L28.3,40z"/>
	</g>
</g>
</svg>
