<?xml version="1.0" encoding="utf-8"?>
<!-- Generator: Adobe Illustrator 19.0.1, SVG Export Plug-In . SVG Version: 6.00 Build 0)  -->
<svg version="1.1" id="Calque_1" xmlns="http://www.w3.org/2000/svg" xmlns:xlink="http://www.w3.org/1999/xlink" x="0px" y="0px"
	 viewBox="0 0 960 560" style="enable-background:new 0 0 960 560;" xml:space="preserve">
<style type="text/css">
	.st0{clip-path:url(#SVGID_2_);}
	.st1{fill:url(#triangle_x5F_11_1_);}
	.st2{fill:url(#triangle_x5F_15_1_);}
	.st3{fill:url(#triangle_x5F_19_1_);}
	.st4{fill:url(#triangle_x5F_24_1_);}
	.st5{fill:url(#triangle_x5F_27_1_);}
	.st6{fill:url(#triangle_x5F_28_1_);}
	.st7{fill:url(#triangle_x5F_32_1_);}
	.st8{fill:url(#triangle_x5F_36_1_);}
	.st9{fill:url(#triangle_x5F_37_1_);}
	.st10{fill:url(#triangle_x5F_44_1_);}
	.st11{fill:url(#triangle_x5F_46_1_);}
	.st12{fill:url(#triangle_x5F_52_1_);}
	.st13{fill:url(#triangle_x5F_53_1_);}
	.st14{fill:url(#triangle_x5F_55_1_);}
	.st15{fill:url(#triangle_x5F_56_1_);}
	.st16{fill:url(#triangle_x5F_58_1_);}
	.st17{fill:url(#triangle_x5F_61_1_);}
	.st18{fill:#FFFFFF;}
</style>
<g>
	<defs>
		<circle id="SVGID_1_" cx="482" cy="281.2" r="48.8"/>
	</defs>
	<clipPath id="SVGID_2_">
		<use xlink:href="#SVGID_1_"  style="overflow:visible;"/>
	</clipPath>
	<g id="D.I._triangles_22_" class="st0">
		
			<linearGradient id="triangle_x5F_11_1_" gradientUnits="userSpaceOnUse" x1="427.729" y1="-268.3574" x2="446.8271" y2="-305.7133" gradientTransform="matrix(1 0 0 -1 0 -40)">
			<stop  offset="0" style="stop-color:#AB32AC"/>
			<stop  offset="1" style="stop-color:#8744C2"/>
		</linearGradient>
		<polygon id="triangle_x5F_11_9_" class="st1" points="427.7,228.4 428.2,272.7 428.2,272.7 465.5,258.8 465.5,258.8 		"/>
		
			<linearGradient id="triangle_x5F_15_1_" gradientUnits="userSpaceOnUse" x1="427.729" y1="-268.3575" x2="466.9183" y2="-283.2539" gradientTransform="matrix(1 0 0 -1 0 -40)">
			<stop  offset="0" style="stop-color:#AE40AA"/>
			<stop  offset="1" style="stop-color:#9E5EB7"/>
		</linearGradient>
		<polygon id="triangle_x5F_15_8_" class="st2" points="427.7,228.4 465.5,258.8 465.5,258.8 468.4,227.7 468.4,227.7 		"/>
		
			<linearGradient id="triangle_x5F_19_1_" gradientUnits="userSpaceOnUse" x1="468.3698" y1="-267.7464" x2="483.6482" y2="-283.9415" gradientTransform="matrix(1 0 0 -1 0 -40)">
			<stop  offset="0" style="stop-color:#C670A9"/>
			<stop  offset="1" style="stop-color:#AE74B7"/>
		</linearGradient>
		<polygon id="triangle_x5F_19_8_" class="st3" points="468.4,227.7 465.5,258.8 465.5,258.8 501.8,229.1 501.8,229.1 		"/>
		
			<linearGradient id="triangle_x5F_24_1_" gradientUnits="userSpaceOnUse" x1="501.8296" y1="-269.1214" x2="486.9331" y2="-309.1509" gradientTransform="matrix(1 0 0 -1 0 -40)">
			<stop  offset="0" style="stop-color:#D392B5"/>
			<stop  offset="1" style="stop-color:#B484BE"/>
		</linearGradient>
		<polygon id="triangle_x5F_24_11_" class="st4" points="501.8,229.1 465.5,258.8 465.5,258.8 508.4,279.5 508.4,279.5 		"/>
		
			<linearGradient id="triangle_x5F_27_1_" gradientUnits="userSpaceOnUse" x1="465.4669" y1="-298.7617" x2="441.4033" y2="-327.2561" gradientTransform="matrix(1 0 0 -1 0 -40)">
			<stop  offset="0" style="stop-color:#7470D3"/>
			<stop  offset="1" style="stop-color:#5756D6"/>
		</linearGradient>
		<polygon id="triangle_x5F_27_6_" class="st5" points="465.5,258.8 428.2,272.7 428.2,272.7 454.6,301.8 454.6,301.8 		"/>
		
			<linearGradient id="triangle_x5F_28_1_" gradientUnits="userSpaceOnUse" x1="508.3994" y1="-319.5404" x2="460.0431" y2="-320.3044" gradientTransform="matrix(1 0 0 -1 0 -40)">
			<stop  offset="0" style="stop-color:#9697E7"/>
			<stop  offset="1" style="stop-color:#8982D3"/>
		</linearGradient>
		<polygon id="triangle_x5F_28_6_" class="st6" points="508.4,279.5 465.5,258.8 465.5,258.8 454.6,301.8 454.6,301.8 		"/>
		
			<linearGradient id="triangle_x5F_32_1_" gradientUnits="userSpaceOnUse" x1="454.6193" y1="-341.847" x2="429.3333" y2="-335.8883" gradientTransform="matrix(1 0 0 -1 0 -40)">
			<stop  offset="0" style="stop-color:#4465E2"/>
			<stop  offset="1" style="stop-color:#3F4BDC"/>
		</linearGradient>
		<polygon id="triangle_x5F_32_4_" class="st7" points="454.6,301.8 428.2,272.7 428.2,272.7 430.5,319.1 430.5,319.1 		"/>
		
			<linearGradient id="triangle_x5F_36_1_" gradientUnits="userSpaceOnUse" x1="468.3699" y1="-267.7463" x2="517.6429" y2="-267.9755" gradientTransform="matrix(1 0 0 -1 0 -40)">
			<stop  offset="0" style="stop-color:#ED8BA2"/>
			<stop  offset="1" style="stop-color:#F197A3"/>
		</linearGradient>
		<polygon id="triangle_x5F_36_2_" class="st8" points="468.4,227.7 501.8,229.1 501.8,229.1 533.5,226.8 533.5,226.8 		"/>
		
			<linearGradient id="triangle_x5F_37_1_" gradientUnits="userSpaceOnUse" x1="501.8296" y1="-269.1213" x2="520.9277" y2="-293.1849" gradientTransform="matrix(1 0 0 -1 0 -40)">
			<stop  offset="0" style="stop-color:#DB9FBF"/>
			<stop  offset="1" style="stop-color:#CBABDA"/>
		</linearGradient>
		<polygon id="triangle_x5F_37_6_" class="st9" points="501.8,229.1 508.4,279.5 508.4,279.5 533.5,226.8 533.5,226.8 		"/>
		
			<linearGradient id="triangle_x5F_44_1_" gradientUnits="userSpaceOnUse" x1="533.4561" y1="-266.8296" x2="516.3442" y2="-336.1175" gradientTransform="matrix(1 0 0 -1 0 -40)">
			<stop  offset="0" style="stop-color:#E5ADC5"/>
			<stop  offset="1" style="stop-color:#CDB1DE"/>
		</linearGradient>
		<polygon id="triangle_x5F_44_6_" class="st10" points="533.5,226.8 508.4,279.5 508.4,279.5 524.3,312.7 524.3,312.7 		"/>
		
			<linearGradient id="triangle_x5F_46_1_" gradientUnits="userSpaceOnUse" x1="430.4792" y1="-359.1116" x2="428.0346" y2="-342.6872" gradientTransform="matrix(1 0 0 -1 0 -40)">
			<stop  offset="0" style="stop-color:#1E46E0"/>
			<stop  offset="1" style="stop-color:#3D48DF"/>
		</linearGradient>
		<polygon id="triangle_x5F_46_4_" class="st11" points="430.5,319.1 428.2,272.7 428.2,272.7 427.9,332.7 427.9,332.7 		"/>
		
			<linearGradient id="triangle_x5F_52_1_" gradientUnits="userSpaceOnUse" x1="508.3994" y1="-319.5405" x2="469.9741" y2="-356.8199" gradientTransform="matrix(1 0 0 -1 0 -40)">
			<stop  offset="0" style="stop-color:#819AF1"/>
			<stop  offset="1" style="stop-color:#5B8CFB"/>
		</linearGradient>
		<polygon id="triangle_x5F_52_8_" class="st12" points="508.4,279.5 454.6,301.8 454.6,301.8 485.3,331.8 485.3,331.8 		"/>
		
			<linearGradient id="triangle_x5F_53_1_" gradientUnits="userSpaceOnUse" x1="524.289" y1="-352.6946" x2="496.8641" y2="-345.6665" gradientTransform="matrix(1 0 0 -1 0 -40)">
			<stop  offset="0" style="stop-color:#8FA3F0"/>
			<stop  offset="1" style="stop-color:#9AA5EF"/>
		</linearGradient>
		<polygon id="triangle_x5F_53_11_" class="st13" points="524.3,312.7 508.4,279.5 508.4,279.5 485.3,331.8 485.3,331.8 		"/>
		
			<linearGradient id="triangle_x5F_55_1_" gradientUnits="userSpaceOnUse" x1="454.6192" y1="-341.8471" x2="457.904" y2="-365.4522" gradientTransform="matrix(1 0 0 -1 0 -40)">
			<stop  offset="0" style="stop-color:#3879FB"/>
			<stop  offset="1" style="stop-color:#2066F7"/>
		</linearGradient>
		<polygon id="triangle_x5F_55_11_" class="st14" points="454.6,301.8 430.5,319.1 430.5,319.1 485.3,331.8 485.3,331.8 		"/>
		
			<linearGradient id="triangle_x5F_56_1_" gradientUnits="userSpaceOnUse" x1="430.4792" y1="-359.1117" x2="456.6054" y2="-372.2511" gradientTransform="matrix(1 0 0 -1 0 -40)">
			<stop  offset="0" style="stop-color:#145BF2"/>
			<stop  offset="1" style="stop-color:#1055F2"/>
		</linearGradient>
		<polygon id="triangle_x5F_56_10_" class="st15" points="430.5,319.1 427.9,332.7 427.9,332.7 485.3,331.8 485.3,331.8 		"/>
		
			<linearGradient id="triangle_x5F_58_1_" gradientUnits="userSpaceOnUse" x1="533.4561" y1="-266.8296" x2="528.3379" y2="-362.6257" gradientTransform="matrix(1 0 0 -1 0 -40)">
			<stop  offset="0" style="stop-color:#E6B1C9"/>
			<stop  offset="1" style="stop-color:#C4B3E6"/>
		</linearGradient>
		<polygon id="triangle_x5F_58_11_" class="st16" points="533.5,226.8 524.3,312.7 524.3,312.7 532.4,332.6 532.4,332.6 		"/>
		
			<linearGradient id="triangle_x5F_61_1_" gradientUnits="userSpaceOnUse" x1="524.2891" y1="-352.6947" x2="508.8578" y2="-372.1748" gradientTransform="matrix(1 0 0 -1 0 -40)">
			<stop  offset="0" style="stop-color:#88A3F5"/>
			<stop  offset="1" style="stop-color:#7EA5F5"/>
		</linearGradient>
		<polygon id="triangle_x5F_61_13_" class="st17" points="524.3,312.7 485.3,331.8 485.3,331.8 532.4,332.6 532.4,332.6 		"/>
	</g>
</g>
<g>
	<g>
		<path class="st18" d="M492.1,307.4H474c-0.1,0-0.3-0.1-0.3-0.2l-9.1-15.7c-0.1-0.1-0.1-0.3,0-0.4l9.1-15.7
			c0.1-0.1,0.2-0.2,0.3-0.2h18.1c0.1,0,0.3,0.1,0.3,0.2l9.1,15.7c0.1,0.1,0.1,0.3,0,0.4l-9.1,15.7
			C492.4,307.3,492.3,307.4,492.1,307.4z M474.2,306.6h17.7l8.9-15.3l-8.9-15.3h-17.7l-8.9,15.3L474.2,306.6z"/>
	</g>
	<g>
		<path class="st18" d="M483.1,291.4c-0.1,0-0.2,0-0.3-0.1l-26.2-26.2c-0.1-0.1-0.1-0.3-0.1-0.4c0.1-0.1,0.2-0.2,0.4-0.2h52.4
			c0.2,0,0.3,0.1,0.4,0.2c0.1,0.1,0,0.3-0.1,0.4l-26.2,26.2C483.3,291.4,483.2,291.4,483.1,291.4z M457.8,265.2l25.3,25.3l25.3-25.3
			H457.8z"/>
	</g>
	<g>
		<path class="st18" d="M483.1,307.5c-0.1,0-0.3-0.1-0.3-0.2L456.5,265c-0.1-0.1-0.1-0.3,0-0.4c0.1-0.1,0.2-0.2,0.3-0.2h52.4
			c0.1,0,0.3,0.1,0.3,0.2c0.1,0.1,0.1,0.3,0,0.4l-26.2,42.3C483.3,307.5,483.2,307.5,483.1,307.5z M457.5,265.2l25.5,41.2l25.5-41.2
			H457.5z"/>
	</g>
	<g>
		<path class="st18" d="M483.1,275.9c-0.1,0-0.2,0-0.3-0.1l-18.4-18.4c-0.1-0.1-0.1-0.3-0.1-0.4c0.1-0.1,0.2-0.2,0.4-0.2h36.8
			c0.2,0,0.3,0.1,0.4,0.2c0.1,0.1,0,0.3-0.1,0.4l-18.4,18.4C483.3,275.8,483.2,275.9,483.1,275.9z M465.6,257.4l17.5,17.5l17.5-17.5
			H465.6z"/>
	</g>
	<g>
		<path class="st18" d="M483.1,291c-0.1,0-0.3-0.1-0.3-0.2l-18.4-33.6c-0.1-0.1-0.1-0.3,0-0.4c0.1-0.1,0.2-0.2,0.3-0.2h36.8
			c0.1,0,0.3,0.1,0.3,0.2c0.1,0.1,0.1,0.3,0,0.4l-18.4,33.6C483.3,291,483.2,291,483.1,291z M465.3,257.4l17.8,32.4l17.8-32.4H465.3
			z"/>
	</g>
</g>
</svg>
