<?xml version="1.0" encoding="utf-8"?>
<!-- Generator: Adobe Illustrator 19.0.1, SVG Export Plug-In . SVG Version: 6.00 Build 0)  -->
<svg version="1.1" id="Calque_1" xmlns="http://www.w3.org/2000/svg" xmlns:xlink="http://www.w3.org/1999/xlink" x="0px" y="0px"
	 viewBox="0 0 960 560" style="enable-background:new 0 0 960 560;" xml:space="preserve">
<style type="text/css">
	.st0{clip-path:url(#SVGID_2_);}
	.st1{fill:url(#triangle_x5F_15_1_);}
	.st2{fill:url(#triangle_x5F_17_1_);}
	.st3{fill:url(#triangle_x5F_26_1_);}
	.st4{fill:url(#triangle_x5F_27_1_);}
	.st5{fill:url(#triangle_x5F_31_1_);}
	.st6{fill:url(#triangle_x5F_32_1_);}
	.st7{fill:url(#triangle_x5F_35_1_);}
	.st8{fill:url(#triangle_x5F_41_1_);}
	.st9{fill:url(#triangle_x5F_42_1_);}
	.st10{fill:url(#triangle_x5F_47_1_);}
	.st11{fill:url(#triangle_x5F_52_1_);}
	.st12{fill:url(#triangle_x5F_53_1_);}
	.st13{fill:url(#triangle_x5F_61_1_);}
	.st14{fill:url(#triangle_x5F_63_1_);}
	.st15{fill:url(#triangle_x5F_64_1_);}
	.st16{fill:url(#triangle_x5F_65_1_);}
	.st17{fill:url(#triangle_x5F_69_1_);}
	.st18{fill:url(#triangle_x5F_70_1_);}
	.st19{fill:url(#triangle_x5F_71_1_);}
	.st20{fill:url(#triangle_x5F_73_1_);}
	.st21{fill:url(#triangle_x5F_79_1_);}
	.st22{fill:url(#triangle_x5F_81_1_);}
	.st23{fill:url(#triangle_x5F_82_1_);}
	.st24{fill:url(#triangle_x5F_85_1_);}
	.st25{fill:url(#triangle_x5F_86_2_);}
	.st26{fill:url(#triangle_x5F_90_1_);}
	.st27{fill:url(#triangle_x5F_91_1_);}
	.st28{fill:url(#triangle_x5F_96_1_);}
	.st29{fill:url(#triangle_x5F_97_1_);}
	.st30{fill:url(#triangle_x5F_98_1_);}
	.st31{fill:url(#triangle_x5F_99_2_);}
	.st32{fill:url(#triangle_x5F_102_1_);}
	.st33{fill:url(#triangle_x5F_107_1_);}
	.st34{fill:url(#triangle_x5F_108_1_);}
	.st35{fill:url(#triangle_x5F_110_1_);}
	.st36{fill:url(#triangle_x5F_113_1_);}
	.st37{fill:url(#triangle_x5F_114_1_);}
	.st38{fill:#FFFFFF;}
</style>
<g>
	<defs>
		<circle id="SVGID_1_" cx="478.9" cy="282.3" r="48.3"/>
	</defs>
	<clipPath id="SVGID_2_">
		<use xlink:href="#SVGID_1_"  style="overflow:visible;"/>
	</clipPath>
	<g id="D.I._triangles_20_" class="st0">
		
			<linearGradient id="triangle_x5F_15_1_" gradientUnits="userSpaceOnUse" x1="492.6104" y1="-304.2389" x2="470.7609" y2="-335.4887" gradientTransform="matrix(1 0 0 -1 0 -40)">
			<stop  offset="0" style="stop-color:#FE9B67"/>
			<stop  offset="1" style="stop-color:#F35F40"/>
		</linearGradient>
		<polygon id="triangle_x5F_15_7_" class="st1" points="492.6,264.2 457.2,292.9 457.2,292.9 484.3,298.1 484.3,298.1 		"/>
		
			<linearGradient id="triangle_x5F_17_1_" gradientUnits="userSpaceOnUse" x1="492.6104" y1="-304.2389" x2="494.1348" y2="-329.1371" gradientTransform="matrix(1 0 0 -1 0 -40)">
			<stop  offset="0" style="stop-color:#FDD09A"/>
			<stop  offset="1" style="stop-color:#FDAE78"/>
		</linearGradient>
		<polygon id="triangle_x5F_17_2_" class="st2" points="492.6,264.2 484.3,298.1 484.3,298.1 504,280.2 504,280.2 		"/>
		
			<linearGradient id="triangle_x5F_26_1_" gradientUnits="userSpaceOnUse" x1="459.4128" y1="-278.8324" x2="488.63" y2="-286.285" gradientTransform="matrix(1 0 0 -1 0 -40)">
			<stop  offset="0" style="stop-color:#F27866"/>
			<stop  offset="1" style="stop-color:#FA8B61"/>
		</linearGradient>
		<polygon id="triangle_x5F_26_4_" class="st3" points="459.4,238.8 492.6,264.2 492.6,264.2 484.6,228.3 484.6,228.3 		"/>
		
			<linearGradient id="triangle_x5F_27_1_" gradientUnits="userSpaceOnUse" x1="492.6103" y1="-304.2389" x2="497.861" y2="-278.917" gradientTransform="matrix(1 0 0 -1 0 -40)">
			<stop  offset="0" style="stop-color:#FBAE79"/>
			<stop  offset="1" style="stop-color:#FCC19A"/>
		</linearGradient>
		<polygon id="triangle_x5F_27_5_" class="st4" points="492.6,264.2 511.1,249.5 511.1,249.5 484.6,228.3 484.6,228.3 		"/>
		
			<linearGradient id="triangle_x5F_31_1_" gradientUnits="userSpaceOnUse" x1="492.6103" y1="-304.2388" x2="449.5042" y2="-287.7247" gradientTransform="matrix(1 0 0 -1 0 -40)">
			<stop  offset="0" style="stop-color:#F97B62"/>
			<stop  offset="1" style="stop-color:#F37C7A"/>
		</linearGradient>
		<polygon id="triangle_x5F_31_5_" class="st5" points="492.6,264.2 459.4,238.8 459.4,238.8 439.6,256.6 439.6,256.6 		"/>
		
			<linearGradient id="triangle_x5F_32_1_" gradientUnits="userSpaceOnUse" x1="457.2108" y1="-332.8634" x2="466.103" y2="-300.4279" gradientTransform="matrix(1 0 0 -1 0 -40)">
			<stop  offset="0" style="stop-color:#EC5745"/>
			<stop  offset="1" style="stop-color:#FA7956"/>
		</linearGradient>
		<polygon id="triangle_x5F_32_3_" class="st6" points="457.2,292.9 492.6,264.2 492.6,264.2 439.6,256.6 439.6,256.6 		"/>
		
			<linearGradient id="triangle_x5F_35_1_" gradientUnits="userSpaceOnUse" x1="457.2108" y1="-332.8635" x2="436.2928" y2="-318.1277" gradientTransform="matrix(1 0 0 -1 0 -40)">
			<stop  offset="0" style="stop-color:#F16C64"/>
			<stop  offset="1" style="stop-color:#FB8F93"/>
		</linearGradient>
		<polygon id="triangle_x5F_35_5_" class="st7" points="457.2,292.9 439.6,256.6 439.6,256.6 433,299.6 433,299.6 		"/>
		
			<linearGradient id="triangle_x5F_41_1_" gradientUnits="userSpaceOnUse" x1="484.311" y1="-338.114" x2="459.4973" y2="-346.3288" gradientTransform="matrix(1 0 0 -1 0 -40)">
			<stop  offset="0" style="stop-color:#D12910"/>
			<stop  offset="1" style="stop-color:#C42110"/>
		</linearGradient>
		<polygon id="triangle_x5F_41_13_" class="st8" points="484.3,298.1 457.2,292.9 457.2,292.9 461.8,319.8 461.8,319.8 		"/>
		
			<linearGradient id="triangle_x5F_42_1_" gradientUnits="userSpaceOnUse" x1="457.2108" y1="-332.8634" x2="447.387" y2="-349.7163" gradientTransform="matrix(1 0 0 -1 0 -40)">
			<stop  offset="0" style="stop-color:#C62A1D"/>
			<stop  offset="1" style="stop-color:#D33E2A"/>
		</linearGradient>
		<polygon id="triangle_x5F_42_9_" class="st9" points="457.2,292.9 433,299.6 433,299.6 461.8,319.8 461.8,319.8 		"/>
		
			<linearGradient id="triangle_x5F_47_1_" gradientUnits="userSpaceOnUse" x1="484.3109" y1="-338.1139" x2="474.9105" y2="-363.8592" gradientTransform="matrix(1 0 0 -1 0 -40)">
			<stop  offset="0" style="stop-color:#DF3919"/>
			<stop  offset="1" style="stop-color:#BF1706"/>
		</linearGradient>
		<polygon id="triangle_x5F_47_7_" class="st10" points="484.3,298.1 461.8,319.8 461.8,319.8 488,327.9 488,327.9 		"/>
		
			<linearGradient id="triangle_x5F_52_1_" gradientUnits="userSpaceOnUse" x1="503.9585" y1="-320.1601" x2="501.3332" y2="-347.9379" gradientTransform="matrix(1 0 0 -1 0 -40)">
			<stop  offset="0" style="stop-color:#FEDDB2"/>
			<stop  offset="1" style="stop-color:#FBAC76"/>
		</linearGradient>
		<polygon id="triangle_x5F_52_6_" class="st11" points="504,280.2 484.3,298.1 484.3,298.1 518.4,317.8 518.4,317.8 		"/>
		
			<linearGradient id="triangle_x5F_53_1_" gradientUnits="userSpaceOnUse" x1="484.3109" y1="-338.114" x2="503.1963" y2="-362.8429" gradientTransform="matrix(1 0 0 -1 0 -40)">
			<stop  offset="0" style="stop-color:#F47B44"/>
			<stop  offset="1" style="stop-color:#ED6631"/>
		</linearGradient>
		<polygon id="triangle_x5F_53_9_" class="st12" points="484.3,298.1 488,327.9 488,327.9 518.4,317.8 518.4,317.8 		"/>
		
			<linearGradient id="triangle_x5F_61_1_" gradientUnits="userSpaceOnUse" x1="503.9585" y1="-320.1601" x2="515.7301" y2="-338.2834" gradientTransform="matrix(1 0 0 -1 0 -40)">
			<stop  offset="0" style="stop-color:#FEEBBA"/>
			<stop  offset="1" style="stop-color:#FED480"/>
		</linearGradient>
		<polygon id="triangle_x5F_61_11_" class="st13" points="504,280.2 518.4,317.8 518.4,317.8 513.1,278.8 513.1,278.8 		"/>
		
			<linearGradient id="triangle_x5F_63_1_" gradientUnits="userSpaceOnUse" x1="492.6103" y1="-304.2389" x2="509.4633" y2="-312.4537" gradientTransform="matrix(1 0 0 -1 0 -40)">
			<stop  offset="0" style="stop-color:#FFE7B8"/>
			<stop  offset="1" style="stop-color:#FFF3D2"/>
		</linearGradient>
		<polygon id="triangle_x5F_63_10_" class="st14" points="492.6,264.2 504,280.2 504,280.2 515,264.7 515,264.7 		"/>
		
			<linearGradient id="triangle_x5F_64_1_" gradientUnits="userSpaceOnUse" x1="503.9585" y1="-320.1602" x2="514.0363" y2="-311.7762" gradientTransform="matrix(1 0 0 -1 0 -40)">
			<stop  offset="0" style="stop-color:#FFF5D1"/>
			<stop  offset="1" style="stop-color:#FFF3CC"/>
		</linearGradient>
		<polygon id="triangle_x5F_64_4_" class="st15" points="504,280.2 513.1,278.8 513.1,278.8 515,264.7 515,264.7 		"/>
		
			<linearGradient id="triangle_x5F_65_1_" gradientUnits="userSpaceOnUse" x1="511.0723" y1="-289.5033" x2="503.7891" y2="-304.493" gradientTransform="matrix(1 0 0 -1 0 -40)">
			<stop  offset="0" style="stop-color:#FECF9E"/>
			<stop  offset="1" style="stop-color:#FECB8D"/>
		</linearGradient>
		<polygon id="triangle_x5F_65_9_" class="st16" points="511.1,249.5 492.6,264.2 492.6,264.2 515,264.7 515,264.7 		"/>
		
			<linearGradient id="triangle_x5F_69_1_" gradientUnits="userSpaceOnUse" x1="513.1047" y1="-318.8051" x2="522.1664" y2="-337.86" gradientTransform="matrix(1 0 0 -1 0 -40)">
			<stop  offset="0" style="stop-color:#FFECB4"/>
			<stop  offset="1" style="stop-color:#FFD07C"/>
		</linearGradient>
		<polygon id="triangle_x5F_69_9_" class="st17" points="513.1,278.8 518.4,317.8 518.4,317.8 526,278 526,278 		"/>
		
			<linearGradient id="triangle_x5F_70_1_" gradientUnits="userSpaceOnUse" x1="539.1887" y1="-317.1115" x2="520.4727" y2="-311.3527" gradientTransform="matrix(1 0 0 -1 0 -40)">
			<stop  offset="0" style="stop-color:#FCDBBA"/>
			<stop  offset="1" style="stop-color:#FEE1B6"/>
		</linearGradient>
		<polygon id="triangle_x5F_70_11_" class="st18" points="539.2,277.1 515,264.7 515,264.7 526,278 526,278 		"/>
		
			<linearGradient id="triangle_x5F_71_1_" gradientUnits="userSpaceOnUse" x1="514.9681" y1="-304.7471" x2="519.5411" y2="-318.3817" gradientTransform="matrix(1 0 0 -1 0 -40)">
			<stop  offset="0" style="stop-color:#FFE6B6"/>
			<stop  offset="1" style="stop-color:#FFECC1"/>
		</linearGradient>
		<polygon id="triangle_x5F_71_6_" class="st19" points="515,264.7 513.1,278.8 513.1,278.8 526,278 526,278 		"/>
		
			<linearGradient id="triangle_x5F_73_1_" gradientUnits="userSpaceOnUse" x1="461.7838" y1="-359.7942" x2="431.8891" y2="-354.8823" gradientTransform="matrix(1 0 0 -1 0 -40)">
			<stop  offset="0" style="stop-color:#BE2212"/>
			<stop  offset="1" style="stop-color:#DC3E29"/>
		</linearGradient>
		<polygon id="triangle_x5F_73_8_" class="st20" points="461.8,319.8 433,299.6 433,299.6 430.8,330.1 430.8,330.1 		"/>
		
			<linearGradient id="triangle_x5F_79_1_" gradientUnits="userSpaceOnUse" x1="432.9902" y1="-339.6386" x2="426.8079" y2="-298.6494" gradientTransform="matrix(1 0 0 -1 0 -40)">
			<stop  offset="0" style="stop-color:#F98C7C"/>
			<stop  offset="1" style="stop-color:#FD9C9D"/>
		</linearGradient>
		<polygon id="triangle_x5F_79_5_" class="st21" points="433,299.6 439.6,256.6 439.6,256.6 414,260.7 414,260.7 		"/>
		
			<linearGradient id="triangle_x5F_81_1_" gradientUnits="userSpaceOnUse" x1="430.7882" y1="-370.1259" x2="423.5051" y2="-320.1603" gradientTransform="matrix(1 0 0 -1 0 -40)">
			<stop  offset="0" style="stop-color:#F56B4D"/>
			<stop  offset="1" style="stop-color:#F9836C"/>
		</linearGradient>
		<polygon id="triangle_x5F_81_2_" class="st22" points="430.8,330.1 433,299.6 433,299.6 414,260.7 414,260.7 		"/>
		
			<linearGradient id="triangle_x5F_82_1_" gradientUnits="userSpaceOnUse" x1="459.4128" y1="-278.8325" x2="457.719" y2="-272.9043" gradientTransform="matrix(1 0 0 -1 0 -40)">
			<stop  offset="0" style="stop-color:#E99991"/>
			<stop  offset="1" style="stop-color:#E59D82"/>
		</linearGradient>
		<polygon id="triangle_x5F_82_3_" class="st23" points="459.4,238.8 484.6,228.3 484.6,228.3 430.8,237.5 430.8,237.5 		"/>
		
			<linearGradient id="triangle_x5F_85_1_" gradientUnits="userSpaceOnUse" x1="439.5958" y1="-296.6169" x2="445.1004" y2="-278.1551" gradientTransform="matrix(1 0 0 -1 0 -40)">
			<stop  offset="0" style="stop-color:#FBA1B7"/>
			<stop  offset="1" style="stop-color:#F698A7"/>
		</linearGradient>
		<polygon id="triangle_x5F_85_4_" class="st24" points="439.6,256.6 459.4,238.8 459.4,238.8 430.8,237.5 430.8,237.5 		"/>
		
			<linearGradient id="triangle_x5F_86_2_" gradientUnits="userSpaceOnUse" x1="414.02" y1="-300.6819" x2="435.1919" y2="-287.0471" gradientTransform="matrix(1 0 0 -1 0 -40)">
			<stop  offset="0" style="stop-color:#FED2F3"/>
			<stop  offset="1" style="stop-color:#FDBFE1"/>
		</linearGradient>
		<polygon id="triangle_x5F_86_1_" class="st25" points="414,260.7 439.6,256.6 439.6,256.6 430.8,237.5 430.8,237.5 		"/>
		
			<linearGradient id="triangle_x5F_90_1_" gradientUnits="userSpaceOnUse" x1="488.0373" y1="-367.924" x2="460.0902" y2="-371.0575" gradientTransform="matrix(1 0 0 -1 0 -40)">
			<stop  offset="0" style="stop-color:#B83724"/>
			<stop  offset="1" style="stop-color:#A61A10"/>
		</linearGradient>
		<polygon id="triangle_x5F_90_2_" class="st26" points="488,327.9 461.8,319.8 461.8,319.8 458.4,342.3 458.4,342.3 		"/>
		
			<linearGradient id="triangle_x5F_91_1_" gradientUnits="userSpaceOnUse" x1="461.7838" y1="-359.7941" x2="444.5923" y2="-376.2235" gradientTransform="matrix(1 0 0 -1 0 -40)">
			<stop  offset="0" style="stop-color:#A70D06"/>
			<stop  offset="1" style="stop-color:#BF1D0C"/>
		</linearGradient>
		<polygon id="triangle_x5F_91_2_" class="st27" points="461.8,319.8 430.8,330.1 430.8,330.1 458.4,342.3 458.4,342.3 		"/>
		
			<linearGradient id="triangle_x5F_96_1_" gradientUnits="userSpaceOnUse" x1="518.3553" y1="-357.7617" x2="503.0269" y2="-367.67" gradientTransform="matrix(1 0 0 -1 0 -40)">
			<stop  offset="0" style="stop-color:#FDA850"/>
			<stop  offset="1" style="stop-color:#F47835"/>
		</linearGradient>
		<polygon id="triangle_x5F_96_2_" class="st28" points="518.4,317.8 488,327.9 488,327.9 518,327.4 518,327.4 		"/>
		
			<linearGradient id="triangle_x5F_97_1_" gradientUnits="userSpaceOnUse" x1="488.0371" y1="-367.9241" x2="488.2065" y2="-374.8685" gradientTransform="matrix(1 0 0 -1 0 -40)">
			<stop  offset="0" style="stop-color:#D35030"/>
			<stop  offset="1" style="stop-color:#D17F5A"/>
		</linearGradient>
		<polygon id="triangle_x5F_97_3_" class="st29" points="488,327.9 458.4,342.3 458.4,342.3 518,327.4 518,327.4 		"/>
		
			<linearGradient id="triangle_x5F_98_1_" gradientUnits="userSpaceOnUse" x1="539.1887" y1="-317.1114" x2="536.3093" y2="-334.303" gradientTransform="matrix(1 0 0 -1 0 -40)">
			<stop  offset="0" style="stop-color:#FBCCAA"/>
			<stop  offset="1" style="stop-color:#FDCB99"/>
		</linearGradient>
		<polygon id="triangle_x5F_98_2_" class="st30" points="539.2,277.1 526,278 526,278 546.6,310.6 546.6,310.6 		"/>
		
			<linearGradient id="triangle_x5F_99_2_" gradientUnits="userSpaceOnUse" x1="525.9772" y1="-317.9582" x2="532.4983" y2="-354.2049" gradientTransform="matrix(1 0 0 -1 0 -40)">
			<stop  offset="0" style="stop-color:#FDD49E"/>
			<stop  offset="1" style="stop-color:#FECC86"/>
		</linearGradient>
		<polygon id="triangle_x5F_99_1_" class="st31" points="526,278 518.4,317.8 518.4,317.8 546.6,310.6 546.6,310.6 		"/>
		
			<linearGradient id="triangle_x5F_102_1_" gradientUnits="userSpaceOnUse" x1="518.3554" y1="-357.7616" x2="532.3289" y2="-359.0319" gradientTransform="matrix(1 0 0 -1 0 -40)">
			<stop  offset="0" style="stop-color:#FFA95A"/>
			<stop  offset="1" style="stop-color:#FE9F51"/>
		</linearGradient>
		<polygon id="triangle_x5F_102_2_" class="st32" points="518.4,317.8 518,327.4 518,327.4 546.6,310.6 546.6,310.6 		"/>
		
			<linearGradient id="triangle_x5F_107_1_" gradientUnits="userSpaceOnUse" x1="511.0721" y1="-289.5033" x2="519.0328" y2="-291.0277" gradientTransform="matrix(1 0 0 -1 0 -40)">
			<stop  offset="0" style="stop-color:#FDDDBE"/>
			<stop  offset="1" style="stop-color:#FEDDB5"/>
		</linearGradient>
		<polygon id="triangle_x5F_107_2_" class="st33" points="511.1,249.5 515,264.7 515,264.7 523.1,237.3 523.1,237.3 		"/>
		
			<linearGradient id="triangle_x5F_108_1_" gradientUnits="userSpaceOnUse" x1="514.9678" y1="-304.747" x2="531.1432" y2="-297.2099" gradientTransform="matrix(1 0 0 -1 0 -40)">
			<stop  offset="0" style="stop-color:#FCE1C1"/>
			<stop  offset="1" style="stop-color:#FAE2CE"/>
		</linearGradient>
		<polygon id="triangle_x5F_108_2_" class="st34" points="515,264.7 539.2,277.1 539.2,277.1 523.1,237.3 523.1,237.3 		"/>
		
			<linearGradient id="triangle_x5F_110_1_" gradientUnits="userSpaceOnUse" x1="430.7882" y1="-277.4776" x2="498.3691" y2="-262.6572" gradientTransform="matrix(1 0 0 -1 0 -40)">
			<stop  offset="0" style="stop-color:#E8A895"/>
			<stop  offset="1" style="stop-color:#ECBD9D"/>
		</linearGradient>
		<polygon id="triangle_x5F_110_2_" class="st35" points="430.8,237.5 484.6,228.3 484.6,228.3 512.1,217 512.1,217 		"/>
		
			<linearGradient id="triangle_x5F_113_1_" gradientUnits="userSpaceOnUse" x1="484.6498" y1="-268.3313" x2="511.5803" y2="-273.2432" gradientTransform="matrix(1 0 0 -1 0 -40)">
			<stop  offset="0" style="stop-color:#F6D0BF"/>
			<stop  offset="1" style="stop-color:#F9D4C3"/>
		</linearGradient>
		<polygon id="triangle_x5F_113_2_" class="st36" points="484.6,228.3 511.1,249.5 511.1,249.5 512.1,217 512.1,217 		"/>
		
			<linearGradient id="triangle_x5F_114_1_" gradientUnits="userSpaceOnUse" x1="511.0723" y1="-289.5032" x2="517.5932" y2="-267.1457" gradientTransform="matrix(1 0 0 -1 0 -40)">
			<stop  offset="0" style="stop-color:#F8E8E7"/>
			<stop  offset="1" style="stop-color:#F4EDF6"/>
		</linearGradient>
		<polygon id="triangle_x5F_114_2_" class="st37" points="511.1,249.5 523.1,237.3 523.1,237.3 512.1,217 512.1,217 		"/>
	</g>
</g>
<g>
	<g>
		<path class="st38" d="M487.5,307.1h-30.8c-0.2,0-0.4-0.2-0.4-0.4v-30.8c0-0.2,0.2-0.4,0.4-0.4h30.8c0.2,0,0.4,0.2,0.4,0.4v30.8
			C487.9,306.9,487.7,307.1,487.5,307.1z M457.1,306.3h30v-30h-30V306.3z"/>
	</g>
	<g>
		<path class="st38" d="M502.8,291.8H472c-0.2,0-0.4-0.2-0.4-0.4v-30.8c0-0.2,0.2-0.4,0.4-0.4h30.8c0.2,0,0.4,0.2,0.4,0.4v30.8
			C503.2,291.6,503,291.8,502.8,291.8z M472.4,291h30v-30h-30V291z"/>
	</g>
	<g>
		<g>
			<g>
				<path class="st38" d="M487.5,276.3c-0.1,0-0.2,0-0.3-0.1c-0.2-0.2-0.2-0.4,0-0.5l15.3-15.3c0.2-0.2,0.4-0.2,0.5,0
					c0.2,0.2,0.2,0.4,0,0.5l-15.3,15.3C487.7,276.3,487.6,276.3,487.5,276.3z"/>
			</g>
			<g>
				<path class="st38" d="M456.7,276.3c-0.1,0-0.2,0-0.3-0.1c-0.2-0.2-0.2-0.4,0-0.5l15.3-15.3c0.2-0.2,0.4-0.2,0.5,0
					c0.2,0.2,0.2,0.4,0,0.5L457,276.2C456.9,276.3,456.8,276.3,456.7,276.3z"/>
			</g>
		</g>
		<g>
			<g>
				<path class="st38" d="M487.5,307.1c-0.1,0-0.2,0-0.3-0.1c-0.2-0.2-0.2-0.4,0-0.5l15.3-15.3c0.2-0.2,0.4-0.2,0.5,0
					c0.2,0.2,0.2,0.4,0,0.5L487.8,307C487.7,307,487.6,307.1,487.5,307.1z"/>
			</g>
			<g>
				<path class="st38" d="M456.7,307.1c-0.1,0-0.2,0-0.3-0.1c-0.2-0.2-0.2-0.4,0-0.5l15.3-15.3c0.2-0.2,0.4-0.2,0.5,0
					c0.2,0.2,0.2,0.4,0,0.5L457,307C456.9,307,456.8,307.1,456.7,307.1z"/>
			</g>
		</g>
	</g>
</g>
</svg>
