<?xml version="1.0" encoding="utf-8"?>
<!-- Generator: Adobe Illustrator 19.0.1, SVG Export Plug-In . SVG Version: 6.00 Build 0)  -->
<svg version="1.1" id="Calque_1" xmlns="http://www.w3.org/2000/svg" xmlns:xlink="http://www.w3.org/1999/xlink" x="0px" y="0px"
	 viewBox="0 0 960 560" style="enable-background:new 0 0 960 560;" xml:space="preserve">
<style type="text/css">
	.st0{clip-path:url(#SVGID_2_);}
	.st1{fill:url(#triangle_x5F_10_1_);}
	.st2{fill:url(#triangle_x5F_14_1_);}
	.st3{fill:url(#triangle_x5F_19_1_);}
	.st4{fill:url(#triangle_x5F_23_1_);}
	.st5{fill:url(#triangle_x5F_24_1_);}
	.st6{fill:url(#triangle_x5F_28_1_);}
	.st7{fill:url(#triangle_x5F_31_1_);}
	.st8{fill:url(#triangle_x5F_35_1_);}
	.st9{fill:url(#triangle_x5F_41_1_);}
	.st10{fill:url(#triangle_x5F_42_1_);}
	.st11{fill:url(#triangle_x5F_45_1_);}
	.st12{fill:url(#triangle_x5F_49_1_);}
	.st13{fill:url(#triangle_x5F_51_1_);}
	.st14{fill:url(#triangle_x5F_52_1_);}
	.st15{fill:url(#triangle_x5F_53_1_);}
	.st16{fill:url(#triangle_x5F_55_1_);}
	.st17{fill:url(#triangle_x5F_59_1_);}
	.st18{fill:url(#triangle_x5F_60_1_);}
	.st19{fill:url(#triangle_x5F_61_1_);}
	.st20{fill:url(#triangle_x5F_62_1_);}
	.st21{fill:url(#triangle_x5F_65_1_);}
</style>
<g>
	<defs>
		<circle id="SVGID_1_" cx="480" cy="251.6" r="68.9"/>
	</defs>
	<clipPath id="SVGID_2_">
		<use xlink:href="#SVGID_1_"  style="overflow:visible;"/>
	</clipPath>
	<g id="D.I._triangles_21_" class="st0">
		
			<linearGradient id="triangle_x5F_10_1_" gradientUnits="userSpaceOnUse" x1="441.819" y1="-258.4653" x2="426.6912" y2="-292.3481" gradientTransform="matrix(1 0 0 -1 0 -40)">
			<stop  offset="0" style="stop-color:#D3F5ED"/>
			<stop  offset="1" style="stop-color:#9BEFD9"/>
		</linearGradient>
		<polygon id="triangle_x5F_10_6_" class="st1" points="441.8,218.5 399.9,249.3 399.9,249.3 453.5,255.4 453.5,255.4 		"/>
		
			<linearGradient id="triangle_x5F_14_1_" gradientUnits="userSpaceOnUse" x1="453.4968" y1="-295.4446" x2="405.9013" y2="-311.988" gradientTransform="matrix(1 0 0 -1 0 -40)">
			<stop  offset="0" style="stop-color:#8DE9D6"/>
			<stop  offset="1" style="stop-color:#70E6CC"/>
		</linearGradient>
		<polygon id="triangle_x5F_14_5_" class="st2" points="453.5,255.4 399.9,249.3 399.9,249.3 411.9,294.7 411.9,294.7 		"/>
		
			<linearGradient id="triangle_x5F_19_1_" gradientUnits="userSpaceOnUse" x1="453.4968" y1="-295.4445" x2="447.3041" y2="-340.3857" gradientTransform="matrix(1 0 0 -1 0 -40)">
			<stop  offset="0" style="stop-color:#96ECDC"/>
			<stop  offset="1" style="stop-color:#A4EADE"/>
		</linearGradient>
		<polygon id="triangle_x5F_19_7_" class="st3" points="453.5,255.4 411.9,294.7 411.9,294.7 482.7,306 482.7,306 		"/>
		
			<linearGradient id="triangle_x5F_23_1_" gradientUnits="userSpaceOnUse" x1="441.819" y1="-258.4651" x2="476.4099" y2="-286.8633" gradientTransform="matrix(1 0 0 -1 0 -40)">
			<stop  offset="0" style="stop-color:#B3F2E5"/>
			<stop  offset="1" style="stop-color:#9AF0DA"/>
		</linearGradient>
		<polygon id="triangle_x5F_23_6_" class="st4" points="441.8,218.5 453.5,255.4 453.5,255.4 499.3,238.3 499.3,238.3 		"/>
		
			<linearGradient id="triangle_x5F_24_1_" gradientUnits="userSpaceOnUse" x1="453.4968" y1="-295.4445" x2="491.0068" y2="-312.1647" gradientTransform="matrix(1 0 0 -1 0 -40)">
			<stop  offset="0" style="stop-color:#52DFC2"/>
			<stop  offset="1" style="stop-color:#71E4C9"/>
		</linearGradient>
		<polygon id="triangle_x5F_24_10_" class="st5" points="453.5,255.4 482.7,306 482.7,306 499.3,238.3 499.3,238.3 		"/>
		
			<linearGradient id="triangle_x5F_28_1_" gradientUnits="userSpaceOnUse" x1="441.8189" y1="-258.4652" x2="487.8222" y2="-258.6421" gradientTransform="matrix(1 0 0 -1 0 -40)">
			<stop  offset="0" style="stop-color:#BEF5EC"/>
			<stop  offset="1" style="stop-color:#C0F5E9"/>
		</linearGradient>
		<polygon id="triangle_x5F_28_5_" class="st6" points="441.8,218.5 499.3,238.3 499.3,238.3 476.3,199 476.3,199 		"/>
		
			<linearGradient id="triangle_x5F_31_1_" gradientUnits="userSpaceOnUse" x1="399.8855" y1="-289.2517" x2="420.5867" y2="-252.2726" gradientTransform="matrix(1 0 0 -1 0 -40)">
			<stop  offset="0" style="stop-color:#9FF0DB"/>
			<stop  offset="1" style="stop-color:#C5F2E7"/>
		</linearGradient>
		<polygon id="triangle_x5F_31_6_" class="st7" points="399.9,249.3 441.8,218.5 441.8,218.5 399.4,206.1 399.4,206.1 		"/>
		
			<linearGradient id="triangle_x5F_35_1_" gradientUnits="userSpaceOnUse" x1="499.323" y1="-278.282" x2="511.1776" y2="-325.7003" gradientTransform="matrix(1 0 0 -1 0 -40)">
			<stop  offset="0" style="stop-color:#AEEEDC"/>
			<stop  offset="1" style="stop-color:#7AE7CD"/>
		</linearGradient>
		<polygon id="triangle_x5F_35_6_" class="st8" points="499.3,238.3 482.7,306 482.7,306 539.7,265.4 539.7,265.4 		"/>
		
			<linearGradient id="triangle_x5F_41_1_" gradientUnits="userSpaceOnUse" x1="476.3213" y1="-239.0024" x2="525.5974" y2="-254.7495" gradientTransform="matrix(1 0 0 -1 0 -40)">
			<stop  offset="0" style="stop-color:#F0FDFD"/>
			<stop  offset="1" style="stop-color:#CBF7F1"/>
		</linearGradient>
		<polygon id="triangle_x5F_41_14_" class="st9" points="476.3,199 499.3,238.3 499.3,238.3 551.9,191.2 551.9,191.2 		"/>
		
			<linearGradient id="triangle_x5F_42_1_" gradientUnits="userSpaceOnUse" x1="499.323" y1="-278.2818" x2="545.7679" y2="-268.2851" gradientTransform="matrix(1 0 0 -1 0 -40)">
			<stop  offset="0" style="stop-color:#E0FAF6"/>
			<stop  offset="1" style="stop-color:#EAFAF9"/>
		</linearGradient>
		<polygon id="triangle_x5F_42_10_" class="st10" points="499.3,238.3 539.7,265.4 539.7,265.4 551.9,191.2 551.9,191.2 		"/>
		
			<linearGradient id="triangle_x5F_45_1_" gradientUnits="userSpaceOnUse" x1="539.6639" y1="-305.3528" x2="517.6356" y2="-349.7633" gradientTransform="matrix(1 0 0 -1 0 -40)">
			<stop  offset="0" style="stop-color:#D1F4E4"/>
			<stop  offset="1" style="stop-color:#A2EEDE"/>
		</linearGradient>
		<polygon id="triangle_x5F_45_4_" class="st11" points="539.7,265.4 482.7,306 482.7,306 552.6,313.5 552.6,313.5 		"/>
		
			<linearGradient id="triangle_x5F_49_1_" gradientUnits="userSpaceOnUse" x1="482.691" y1="-346.048" x2="418.2868" y2="-353.9216" gradientTransform="matrix(1 0 0 -1 0 -40)">
			<stop  offset="0" style="stop-color:#E2EBEF"/>
			<stop  offset="1" style="stop-color:#C4E8E5"/>
		</linearGradient>
		<polygon id="triangle_x5F_49_4_" class="st12" points="482.7,306 411.9,294.7 411.9,294.7 424.7,333.1 424.7,333.1 		"/>
		
			<linearGradient id="triangle_x5F_51_1_" gradientUnits="userSpaceOnUse" x1="552.5802" y1="-353.479" x2="453.6738" y2="-359.5833" gradientTransform="matrix(1 0 0 -1 0 -40)">
			<stop  offset="0" style="stop-color:#E2EBF0"/>
			<stop  offset="1" style="stop-color:#E4ECF0"/>
		</linearGradient>
		<polygon id="triangle_x5F_51_7_" class="st13" points="552.6,313.5 482.7,306 482.7,306 424.7,333.1 424.7,333.1 		"/>
		
			<linearGradient id="triangle_x5F_52_1_" gradientUnits="userSpaceOnUse" x1="441.819" y1="-258.4654" x2="469.7748" y2="-223.5207" gradientTransform="matrix(1 0 0 -1 0 -40)">
			<stop  offset="0" style="stop-color:#E0F9F5"/>
			<stop  offset="1" style="stop-color:#FBFDFD"/>
		</linearGradient>
		<polygon id="triangle_x5F_52_7_" class="st14" points="441.8,218.5 476.3,199 476.3,199 463.2,168 463.2,168 		"/>
		
			<linearGradient id="triangle_x5F_53_1_" gradientUnits="userSpaceOnUse" x1="399.3547" y1="-246.0799" x2="452.5237" y2="-233.2522" gradientTransform="matrix(1 0 0 -1 0 -40)">
			<stop  offset="0" style="stop-color:#EBF6F3"/>
			<stop  offset="1" style="stop-color:#E5F7F4"/>
		</linearGradient>
		<polygon id="triangle_x5F_53_10_" class="st15" points="399.4,206.1 441.8,218.5 441.8,218.5 463.2,168 463.2,168 		"/>
		
			<linearGradient id="triangle_x5F_55_1_" gradientUnits="userSpaceOnUse" x1="476.3213" y1="-239.0023" x2="507.5502" y2="-219.6281" gradientTransform="matrix(1 0 0 -1 0 -40)">
			<stop  offset="0" style="stop-color:#FDFEFE"/>
			<stop  offset="1" style="stop-color:#FFFFFF"/>
		</linearGradient>
		<polygon id="triangle_x5F_55_10_" class="st16" points="476.3,199 551.9,191.2 551.9,191.2 463.2,168 463.2,168 		"/>
		
			<linearGradient id="triangle_x5F_59_1_" gradientUnits="userSpaceOnUse" x1="551.8725" y1="-231.2171" x2="556.4728" y2="-304.999" gradientTransform="matrix(1 0 0 -1 0 -40)">
			<stop  offset="0" style="stop-color:#DEFBF8"/>
			<stop  offset="1" style="stop-color:#C2F5F0"/>
		</linearGradient>
		<polygon id="triangle_x5F_59_6_" class="st17" points="551.9,191.2 539.7,265.4 539.7,265.4 573.3,264.6 573.3,264.6 		"/>
		
			<linearGradient id="triangle_x5F_60_1_" gradientUnits="userSpaceOnUse" x1="539.6641" y1="-305.353" x2="562.9309" y2="-329.0622" gradientTransform="matrix(1 0 0 -1 0 -40)">
			<stop  offset="0" style="stop-color:#91EEDE"/>
			<stop  offset="1" style="stop-color:#A7EAE6"/>
		</linearGradient>
		<polygon id="triangle_x5F_60_10_" class="st18" points="539.7,265.4 552.6,313.5 552.6,313.5 573.3,264.6 573.3,264.6 		"/>
		
			<linearGradient id="triangle_x5F_61_1_" gradientUnits="userSpaceOnUse" x1="411.9173" y1="-334.7242" x2="393.8698" y2="-307.3876" gradientTransform="matrix(1 0 0 -1 0 -40)">
			<stop  offset="0" style="stop-color:#5BE1BC"/>
			<stop  offset="1" style="stop-color:#9EF1E1"/>
		</linearGradient>
		<polygon id="triangle_x5F_61_12_" class="st19" points="411.9,294.7 399.9,249.3 399.9,249.3 387.9,285.5 387.9,285.5 		"/>
		
			<linearGradient id="triangle_x5F_62_1_" gradientUnits="userSpaceOnUse" x1="399.8855" y1="-289.2517" x2="393.6043" y2="-285.8015" gradientTransform="matrix(1 0 0 -1 0 -40)">
			<stop  offset="0" style="stop-color:#A8F2DF"/>
			<stop  offset="1" style="stop-color:#ADEFDA"/>
		</linearGradient>
		<polygon id="triangle_x5F_62_7_" class="st20" points="399.9,249.3 399.4,206.1 399.4,206.1 387.9,285.5 387.9,285.5 		"/>
		
			<linearGradient id="triangle_x5F_65_1_" gradientUnits="userSpaceOnUse" x1="424.6564" y1="-373.119" x2="399.8855" y2="-330.1236" gradientTransform="matrix(1 0 0 -1 0 -40)">
			<stop  offset="0" style="stop-color:#D3E2E6"/>
			<stop  offset="1" style="stop-color:#ADE4DA"/>
		</linearGradient>
		<polygon id="triangle_x5F_65_10_" class="st21" points="424.7,333.1 411.9,294.7 411.9,294.7 387.9,285.5 387.9,285.5 		"/>
	</g>
</g>
<g>
	<g>
		<g>
			<path d="M480.7,285.4c-0.2,0-0.4-0.1-0.5-0.3L452.3,231c-0.1-0.2-0.1-0.4,0-0.5c0.1-0.2,0.3-0.3,0.5-0.3h55.8
				c0.2,0,0.4,0.1,0.5,0.3c0.1,0.2,0.1,0.4,0,0.5l-27.9,54.2C481.1,285.3,480.9,285.4,480.7,285.4z M453.7,231.3l27,52.4l27-52.4
				H453.7z"/>
		</g>
		<g>
			<path d="M480.7,285.4c-0.2,0-0.4-0.1-0.5-0.3L452.3,231c-0.1-0.2-0.1-0.4,0-0.5c0.1-0.2,0.3-0.3,0.5-0.3h15.7
				c0.3,0,0.5,0.2,0.5,0.4l12.2,54c0,0.1,0.1,0.2,0.1,0.3C481.3,285.2,481,285.4,480.7,285.4C480.7,285.4,480.7,285.4,480.7,285.4z
				 M453.7,231.3l25.5,49.5L468,231.3H453.7z"/>
		</g>
		<g>
			<path d="M480.5,285.4c-0.1,0-0.1,0-0.2,0c-0.3-0.1-0.4-0.4-0.3-0.6l12.2-54.2c0.1-0.2,0.3-0.4,0.5-0.4h15.7
				c0.2,0,0.4,0.1,0.5,0.3c0.1,0.2,0.1,0.4,0,0.5L481,285.1C480.9,285.3,480.7,285.4,480.5,285.4z M493.2,231.3L482,280.8l25.5-49.5
				H493.2z"/>
		</g>
	</g>
	<g>
		<g>
			<path d="M508.6,231.3h-55.8c-0.3,0-0.5-0.2-0.5-0.4c-0.1-0.3,0.1-0.5,0.3-0.6l27.9-13c0.1-0.1,0.3-0.1,0.5,0l27.9,13
				c0.2,0.1,0.4,0.4,0.3,0.6C509.1,231.1,508.9,231.3,508.6,231.3z M455.3,230.2h50.9l-25.4-11.9L455.3,230.2z"/>
		</g>
		<g>
			<path d="M468.5,231.3h-15.7c-0.3,0-0.5-0.2-0.5-0.4c-0.1-0.3,0.1-0.5,0.3-0.6l27.9-13c0.2-0.1,0.5,0,0.7,0.2
				c0.2,0.2,0.1,0.5,0,0.7l-12.2,13C468.8,231.2,468.6,231.3,468.5,231.3z M455.3,230.2h13l10.1-10.8L455.3,230.2z"/>
		</g>
		<g>
			<path d="M508.5,231.3C508.4,231.3,508.4,231.3,508.5,231.3h-15.7c-0.2,0-0.3-0.1-0.4-0.2l-12.2-13c-0.2-0.2-0.2-0.5,0-0.7
				c0.2-0.2,0.4-0.3,0.7-0.2l27.8,13c0.2,0.1,0.4,0.3,0.4,0.5C509,231,508.8,231.3,508.5,231.3z M493,230.2h13l-23.1-10.8L493,230.2
				z"/>
		</g>
	</g>
</g>
</svg>
