<?xml version="1.0" encoding="utf-8"?>
<!-- Generator: Adobe Illustrator 19.0.1, SVG Export Plug-In . SVG Version: 6.00 Build 0)  -->
<svg version="1.1" id="Calque_1" xmlns="http://www.w3.org/2000/svg" xmlns:xlink="http://www.w3.org/1999/xlink" x="0px" y="0px"
	 viewBox="0 0 960 560" style="enable-background:new 0 0 960 560;" xml:space="preserve">
<style type="text/css">
	.st0{clip-path:url(#SVGID_2_);}
	.st1{fill:#A5658C;}
	.st2{fill:#BE81AF;}
	.st3{fill:#B07DA6;}
	.st4{fill:#B39AC1;}
	.st5{fill:#CCB0D6;}
	.st6{fill:#C4B2D9;}
	.st7{fill:#CDABD2;}
	.st8{fill:#C1C1E4;}
	.st9{fill:#D9CBEA;}
	.st10{fill:#BC79A8;}
	.st11{fill:#A77EAB;}
	.st12{fill:#C28CBA;}
	.st13{fill:#BF93BD;}
	.st14{fill:#B594BF;}
	.st15{fill:#B399BF;}
	.st16{fill:#6A4367;}
	.st17{fill:#9E6B94;}
	.st18{fill:#412248;}
	.st19{fill:#2E1837;}
	.st20{fill:#9383A2;}
	.st21{fill:#5F4D6A;}
	.st22{fill:#A38AAB;}
	.st23{fill:#B6A4CD;}
	.st24{fill:#A9A0C4;}
	.st25{fill:#482950;}
	.st26{fill:#532F56;}
	.st27{fill:#53315A;}
	.st28{fill:#BB86B1;}
	.st29{fill:#C08AB7;}
	.st30{fill:#7E4E7A;}
	.st31{fill:#AC86AA;}
	.st32{fill:#9184B1;}
	.st33{fill:#8384B5;}
	.st34{fill:#A5A4CE;}
	.st35{fill:#B074A1;}
	.st36{fill:#9A76A1;}
	.st37{fill:#C395C4;}
	.st38{fill:#CBA9D2;}
	.st39{fill:#B1ACD3;}
	.st40{fill:#A9A3CB;}
	.st41{fill:#AAADD7;}
	.st42{fill:#B7B7DC;}
	.st43{fill:#CF9CC8;}
	.st44{fill:#B599C4;}
	.st45{fill:#D5ABD1;}
	.st46{fill:#936E97;}
	.st47{fill:#8A7DAB;}
	.st48{fill:#9786B2;}
	.st49{fill:#A386B3;}
	.st50{fill:#B3A2CB;}
	.st51{fill:#BB7CA8;}
	.st52{fill:#C58FBD;}
	.st53{fill:#BC93BF;}
	.st54{fill:#B99CC6;}
	.st55{fill:#C3A4CC;}
	.st56{fill:#C39AC1;}
	.st57{fill:#D1B0D7;}
	.st58{fill:#C9AED4;}
	.st59{fill:#C589B9;}
	.st60{fill:#C08AB9;}
	.st61{fill:#C694BF;}
	.st62{fill:#BC91BD;}
	.st63{fill:#C79AC3;}
	.st64{fill:#FFFFFF;}
</style>
<g>
	<defs>
		<circle id="SVGID_1_" cx="477.2" cy="279.5" r="48.9"/>
	</defs>
	<clipPath id="SVGID_2_">
		<use xlink:href="#SVGID_1_"  style="overflow:visible;"/>
	</clipPath>
	<g class="st0">
		<g>
			<polygon class="st1" points="453.7,294.9 453.7,326 426.8,310.4 426.8,279.4 			"/>
			<polygon class="st2" points="453.7,294.9 480.6,279.4 480.6,310.4 453.7,326 			"/>
			<polygon class="st3" points="453.7,294.9 426.8,279.4 453.7,263.8 480.6,279.4 			"/>
		</g>
		<g>
			<polygon class="st4" points="480.6,248.3 480.6,279.4 453.7,263.8 453.7,232.8 			"/>
			<polygon class="st5" points="480.6,248.3 507.5,232.8 507.5,263.8 480.6,279.4 			"/>
			<polygon class="st6" points="480.6,248.3 453.7,232.8 480.6,217.2 507.5,232.8 			"/>
		</g>
		<g>
			<polygon class="st7" points="507.5,263.8 507.5,294.9 480.6,279.4 480.6,248.3 			"/>
			<polygon class="st8" points="507.5,263.8 534.4,248.3 534.4,279.4 507.5,294.9 			"/>
			<polygon class="st9" points="507.5,263.8 480.6,248.3 507.5,232.8 534.4,248.3 			"/>
		</g>
		<g>
			<polygon class="st10" points="480.6,310.4 480.6,341.5 453.7,326 453.7,294.9 			"/>
			<polygon class="st11" points="480.6,310.4 507.5,294.9 507.5,326 480.6,341.5 			"/>
			<polygon class="st12" points="480.6,310.4 453.7,294.9 480.6,279.4 507.5,294.9 			"/>
		</g>
		<g>
			<polygon class="st13" points="467.1,271.6 467.1,287.1 453.7,279.4 453.7,263.8 			"/>
			<polygon class="st14" points="467.1,271.6 480.6,263.8 480.6,279.4 467.1,287.1 			"/>
			<polygon class="st15" points="467.1,271.6 453.7,263.8 467.1,256.1 480.6,263.8 			"/>
		</g>
		<g>
			<polygon class="st16" points="440.2,271.6 440.2,287.1 426.8,279.4 426.8,263.8 			"/>
			<polygon class="st17" points="440.2,271.6 453.7,263.8 453.7,279.4 440.2,287.1 			"/>
			<polygon class="st18" points="440.2,271.6 426.8,263.8 440.2,256.1 453.7,263.8 			"/>
		</g>
		<g>
			<polygon class="st19" points="453.7,248.3 453.7,263.8 440.2,256.1 440.2,240.5 			"/>
			<polygon class="st20" points="453.7,248.3 467.1,240.5 467.1,256.1 453.7,263.8 			"/>
			<polygon class="st21" points="453.7,248.3 440.2,240.5 453.7,232.8 467.1,240.5 			"/>
		</g>
		<g>
			<polygon class="st22" points="467.1,256.1 467.1,271.6 453.7,263.8 453.7,248.3 			"/>
			<polygon class="st23" points="467.1,256.1 480.6,248.3 480.6,263.8 467.1,271.6 			"/>
			<polygon class="st24" points="467.1,256.1 453.7,248.3 467.1,240.5 480.6,248.3 			"/>
		</g>
		<g>
			<polygon class="st25" points="440.2,256.1 440.2,271.6 426.8,263.8 426.8,248.3 			"/>
			<polygon class="st26" points="440.2,256.1 453.7,248.3 453.7,263.8 440.2,271.6 			"/>
			<polygon class="st27" points="440.2,256.1 426.8,248.3 440.2,240.5 453.7,248.3 			"/>
		</g>
		<g>
			<polygon class="st28" points="453.7,279.4 467.1,271.6 467.1,287.1 453.7,294.9 			"/>
			<polygon class="st29" points="453.7,279.4 440.2,271.6 453.7,263.8 467.1,271.6 			"/>
		</g>
		<g>
			<polygon class="st30" points="453.7,263.8 453.7,279.4 440.2,271.6 440.2,256.1 			"/>
			<polygon class="st31" points="453.7,263.8 467.1,256.1 467.1,271.6 453.7,279.4 			"/>
		</g>
		<g>
			<polygon class="st32" points="521,302.7 521,318.2 507.5,310.4 507.5,294.9 			"/>
			<polygon class="st33" points="521,302.7 534.4,294.9 534.4,310.4 521,318.2 			"/>
			<polygon class="st34" points="521,302.7 507.5,294.9 521,287.1 534.4,294.9 			"/>
		</g>
		<g>
			<polygon class="st35" points="494,302.7 494,318.2 480.6,310.4 480.6,294.9 			"/>
			<polygon class="st36" points="494,302.7 507.5,294.9 507.5,310.4 494,318.2 			"/>
			<polygon class="st37" points="494,302.7 480.6,294.9 494,287.1 507.5,294.9 			"/>
		</g>
		<g>
			<polygon class="st38" points="507.5,279.4 507.5,294.9 494,287.1 494,271.6 			"/>
			<polygon class="st39" points="507.5,279.4 521,271.6 521,287.1 507.5,294.9 			"/>
		</g>
		<g>
			<polygon class="st40" points="521,287.1 521,302.7 507.5,294.9 507.5,279.4 			"/>
			<polygon class="st41" points="521,287.1 534.4,279.4 534.4,294.9 521,302.7 			"/>
			<polygon class="st42" points="521,287.1 507.5,279.4 521,271.6 534.4,279.4 			"/>
		</g>
		<g>
			<polygon class="st43" points="494,287.1 494,302.7 480.6,294.9 480.6,279.4 			"/>
			<polygon class="st44" points="494,287.1 507.5,279.4 507.5,294.9 494,302.7 			"/>
			<polygon class="st45" points="494,287.1 480.6,279.4 494,271.6 507.5,279.4 			"/>
		</g>
		<g>
			<polygon class="st46" points="507.5,310.4 507.5,326 494,318.2 494,302.7 			"/>
			<polygon class="st47" points="507.5,310.4 521,302.7 521,318.2 507.5,326 			"/>
			<polygon class="st48" points="507.5,310.4 494,302.7 507.5,294.9 521,302.7 			"/>
		</g>
		<g>
			<polygon class="st49" points="507.5,294.9 507.5,310.4 494,302.7 494,287.1 			"/>
			<polygon class="st50" points="507.5,294.9 494,287.1 507.5,279.4 521,287.1 			"/>
		</g>
		<g>
			<polygon class="st43" points="494,287.1 494,302.7 480.6,294.9 480.6,279.4 			"/>
			<polygon class="st44" points="494,287.1 507.5,279.4 507.5,294.9 494,302.7 			"/>
			<polygon class="st45" points="494,287.1 480.6,279.4 494,271.6 507.5,279.4 			"/>
		</g>
		<g>
			<polygon class="st51" points="467.1,287.1 467.1,302.7 453.7,294.9 453.7,279.4 			"/>
			<polygon class="st52" points="467.1,287.1 480.6,279.4 480.6,294.9 467.1,302.7 			"/>
			<polygon class="st53" points="467.1,287.1 453.7,279.4 467.1,271.6 480.6,279.4 			"/>
		</g>
		<g>
			<polygon class="st54" points="480.6,263.8 480.6,279.4 467.1,271.6 467.1,256.1 			"/>
			<polygon class="st55" points="480.6,263.8 494,256.1 494,271.6 480.6,279.4 			"/>
		</g>
		<g>
			<polygon class="st56" points="494,271.6 494,287.1 480.6,279.4 480.6,263.8 			"/>
			<polygon class="st57" points="494,271.6 507.5,263.8 507.5,279.4 494,287.1 			"/>
			<polygon class="st58" points="494,271.6 480.6,263.8 494,256.1 507.5,263.8 			"/>
		</g>
		<g>
			<polygon class="st14" points="467.1,271.6 480.6,263.8 480.6,279.4 467.1,287.1 			"/>
			<polygon class="st15" points="467.1,271.6 453.7,263.8 467.1,256.1 480.6,263.8 			"/>
		</g>
		<g>
			<polygon class="st59" points="480.6,294.9 480.6,310.4 467.1,302.7 467.1,287.1 			"/>
			<polygon class="st60" points="480.6,294.9 494,287.1 494,302.7 480.6,310.4 			"/>
			<polygon class="st61" points="480.6,294.9 467.1,287.1 480.6,279.4 494,287.1 			"/>
		</g>
		<g>
			<polygon class="st62" points="480.6,279.4 480.6,294.9 467.1,287.1 467.1,271.6 			"/>
			<polygon class="st63" points="480.6,279.4 494,271.6 494,287.1 480.6,294.9 			"/>
		</g>
	</g>
</g>
<g>
	<g>
		<g>
			<path class="st64" d="M477.6,301c-0.1,0-0.2-0.1-0.3-0.2l-22-29.6c-0.1-0.1-0.1-0.3,0-0.4c0.1-0.1,0.2-0.2,0.3-0.2h44.1
				c0.1,0,0.3,0.1,0.3,0.2c0.1,0.1,0.1,0.3,0,0.4l-22,29.6C477.9,300.9,477.7,301,477.6,301z M456.3,271.4l21.3,28.6l21.3-28.6
				H456.3z"/>
		</g>
		<g>
			<path class="st64" d="M477.6,301c-0.1,0-0.2-0.1-0.3-0.2l-22-29.6c-0.1-0.1-0.1-0.3,0-0.4c0.1-0.1,0.2-0.2,0.3-0.2H468
				c0.2,0,0.3,0.1,0.4,0.3l9.6,29.5c0,0.1,0.1,0.1,0.1,0.2C478,300.8,477.8,301,477.6,301C477.6,301,477.6,301,477.6,301z
				 M456.3,271.4l20.2,27.1l-8.8-27.1H456.3z"/>
		</g>
		<g>
			<path class="st64" d="M477.5,301c-0.1,0-0.1,0-0.2,0c-0.2-0.1-0.2-0.3-0.2-0.5l9.7-29.6c0.1-0.2,0.2-0.3,0.4-0.3h12.4
				c0.1,0,0.3,0.1,0.3,0.2s0.1,0.3,0,0.4l-22,29.6C477.7,300.9,477.6,301,477.5,301z M487.4,271.4l-8.8,27.1l20.2-27.1H487.4z"/>
		</g>
	</g>
	<g>
		<path class="st64" d="M468,271.4h-12.4c-0.2,0-0.3-0.1-0.4-0.2c-0.1-0.1,0-0.3,0.1-0.4l8.2-7.7c0.1-0.1,0.2-0.1,0.3-0.1h7.8
			c0.1,0,0.3,0.1,0.3,0.2c0.1,0.1,0.1,0.3,0,0.4l-3.6,7.7C468.2,271.3,468.1,271.4,468,271.4z M456.6,270.6h11.2l3.3-7h-7
			L456.6,270.6z"/>
	</g>
	<g>
		<path class="st64" d="M499.5,271.4h-12.4c-0.2,0-0.3-0.1-0.4-0.2l-3.6-7.7c-0.1-0.1,0-0.3,0-0.4c0.1-0.1,0.2-0.2,0.3-0.2h7.8
			c0.1,0,0.2,0,0.3,0.1l8.2,7.7c0.1,0.1,0.2,0.3,0.1,0.4C499.8,271.3,499.7,271.4,499.5,271.4z M487.4,270.6h11.2l-7.4-7h-7
			L487.4,270.6z"/>
	</g>
	<g>
		<path class="st64" d="M499.7,271.4h-44.1c-0.2,0-0.3-0.1-0.4-0.2c-0.1-0.1,0-0.3,0.1-0.4l8.2-7.7c0.1-0.1,0.2-0.1,0.3-0.1h27.6
			c0.1,0,0.2,0,0.3,0.1l8.2,7.7c0.1,0.1,0.2,0.3,0.1,0.4C500,271.3,499.8,271.4,499.7,271.4z M456.6,270.6h42.1l-7.4-7H464
			L456.6,270.6z"/>
	</g>
</g>
</svg>
