<?xml version="1.0" encoding="utf-8"?>
<!-- Generator: Adobe Illustrator 19.0.1, SVG Export Plug-In . SVG Version: 6.00 Build 0)  -->
<svg version="1.1" id="Calque_1" xmlns="http://www.w3.org/2000/svg" xmlns:xlink="http://www.w3.org/1999/xlink" x="0px" y="0px"
	 viewBox="0 0 97.6 97.6" style="enable-background:new 0 0 97.6 97.6;" xml:space="preserve">
<style type="text/css">
	.st0{clip-path:url(#SVGID_2_);}
	.st1{fill:url(#triangle_x5F_11_1_);}
	.st2{fill:url(#triangle_x5F_15_1_);}
	.st3{fill:url(#triangle_x5F_19_1_);}
	.st4{fill:url(#triangle_x5F_24_1_);}
	.st5{fill:url(#triangle_x5F_27_1_);}
	.st6{fill:url(#triangle_x5F_28_1_);}
	.st7{fill:url(#triangle_x5F_32_1_);}
	.st8{fill:url(#triangle_x5F_36_1_);}
	.st9{fill:url(#triangle_x5F_37_1_);}
	.st10{fill:url(#triangle_x5F_44_1_);}
	.st11{fill:url(#triangle_x5F_46_1_);}
	.st12{fill:url(#triangle_x5F_52_1_);}
	.st13{fill:url(#triangle_x5F_53_1_);}
	.st14{fill:url(#triangle_x5F_55_1_);}
	.st15{fill:url(#triangle_x5F_56_1_);}
	.st16{fill:url(#triangle_x5F_58_1_);}
	.st17{fill:url(#triangle_x5F_61_1_);}
	.st18{fill:#FFFFFF;}
</style>
<g>
	<defs>
		<circle id="SVGID_1_" cx="48.8" cy="48.8" r="48.8"/>
	</defs>
	<clipPath id="SVGID_2_">
		<use xlink:href="#SVGID_1_"  style="overflow:visible;"/>
	</clipPath>
	<g id="D.I._triangles_22_" class="st0">
		
			<linearGradient id="triangle_x5F_11_1_" gradientUnits="userSpaceOnUse" x1="-5.4662" y1="-500.7448" x2="13.632" y2="-538.1007" gradientTransform="matrix(1 0 0 -1 0 -504.7748)">
			<stop  offset="0" style="stop-color:#AB32AC"/>
			<stop  offset="1" style="stop-color:#8744C2"/>
		</linearGradient>
		<polygon id="triangle_x5F_11_9_" class="st1" points="-5.5,-4 -5,40.3 -5,40.3 32.3,26.4 32.3,26.4 		"/>
		
			<linearGradient id="triangle_x5F_15_1_" gradientUnits="userSpaceOnUse" x1="-5.4661" y1="-500.7449" x2="33.7231" y2="-515.6413" gradientTransform="matrix(1 0 0 -1 0 -504.7748)">
			<stop  offset="0" style="stop-color:#AE40AA"/>
			<stop  offset="1" style="stop-color:#9E5EB7"/>
		</linearGradient>
		<polygon id="triangle_x5F_15_8_" class="st2" points="-5.5,-4 32.3,26.4 32.3,26.4 35.2,-4.6 35.2,-4.6 		"/>
		
			<linearGradient id="triangle_x5F_19_1_" gradientUnits="userSpaceOnUse" x1="35.1747" y1="-500.1338" x2="50.453" y2="-516.3289" gradientTransform="matrix(1 0 0 -1 0 -504.7748)">
			<stop  offset="0" style="stop-color:#C670A9"/>
			<stop  offset="1" style="stop-color:#AE74B7"/>
		</linearGradient>
		<polygon id="triangle_x5F_19_8_" class="st3" points="35.2,-4.6 32.3,26.4 32.3,26.4 68.6,-3.3 68.6,-3.3 		"/>
		
			<linearGradient id="triangle_x5F_24_1_" gradientUnits="userSpaceOnUse" x1="68.6344" y1="-501.5088" x2="53.7379" y2="-541.5383" gradientTransform="matrix(1 0 0 -1 0 -504.7748)">
			<stop  offset="0" style="stop-color:#D392B5"/>
			<stop  offset="1" style="stop-color:#B484BE"/>
		</linearGradient>
		<polygon id="triangle_x5F_24_11_" class="st4" points="68.6,-3.3 32.3,26.4 32.3,26.4 75.2,47.2 75.2,47.2 		"/>
		
			<linearGradient id="triangle_x5F_27_1_" gradientUnits="userSpaceOnUse" x1="32.2717" y1="-531.149" x2="8.2081" y2="-559.6435" gradientTransform="matrix(1 0 0 -1 0 -504.7748)">
			<stop  offset="0" style="stop-color:#7470D3"/>
			<stop  offset="1" style="stop-color:#5756D6"/>
		</linearGradient>
		<polygon id="triangle_x5F_27_6_" class="st5" points="32.3,26.4 -5,40.3 -5,40.3 21.4,69.5 21.4,69.5 		"/>
		
			<linearGradient id="triangle_x5F_28_1_" gradientUnits="userSpaceOnUse" x1="75.2042" y1="-551.9278" x2="26.848" y2="-552.6918" gradientTransform="matrix(1 0 0 -1 0 -504.7748)">
			<stop  offset="0" style="stop-color:#9697E7"/>
			<stop  offset="1" style="stop-color:#8982D3"/>
		</linearGradient>
		<polygon id="triangle_x5F_28_6_" class="st6" points="75.2,47.2 32.3,26.4 32.3,26.4 21.4,69.5 21.4,69.5 		"/>
		
			<linearGradient id="triangle_x5F_32_1_" gradientUnits="userSpaceOnUse" x1="21.4241" y1="-574.2344" x2="-3.8619" y2="-568.2758" gradientTransform="matrix(1 0 0 -1 0 -504.7748)">
			<stop  offset="0" style="stop-color:#4465E2"/>
			<stop  offset="1" style="stop-color:#3F4BDC"/>
		</linearGradient>
		<polygon id="triangle_x5F_32_4_" class="st7" points="21.4,69.5 -5,40.3 -5,40.3 -2.7,86.7 -2.7,86.7 		"/>
		
			<linearGradient id="triangle_x5F_36_1_" gradientUnits="userSpaceOnUse" x1="35.1748" y1="-500.1337" x2="84.4478" y2="-500.3629" gradientTransform="matrix(1 0 0 -1 0 -504.7748)">
			<stop  offset="0" style="stop-color:#ED8BA2"/>
			<stop  offset="1" style="stop-color:#F197A3"/>
		</linearGradient>
		<polygon id="triangle_x5F_36_2_" class="st8" points="35.2,-4.6 68.6,-3.3 68.6,-3.3 100.3,-5.6 100.3,-5.6 		"/>
		
			<linearGradient id="triangle_x5F_37_1_" gradientUnits="userSpaceOnUse" x1="68.6344" y1="-501.5087" x2="87.7326" y2="-525.5723" gradientTransform="matrix(1 0 0 -1 0 -504.7748)">
			<stop  offset="0" style="stop-color:#DB9FBF"/>
			<stop  offset="1" style="stop-color:#CBABDA"/>
		</linearGradient>
		<polygon id="triangle_x5F_37_6_" class="st9" points="68.6,-3.3 75.2,47.2 75.2,47.2 100.3,-5.6 100.3,-5.6 		"/>
		
			<linearGradient id="triangle_x5F_44_1_" gradientUnits="userSpaceOnUse" x1="100.2609" y1="-499.217" x2="83.149" y2="-568.5049" gradientTransform="matrix(1 0 0 -1 0 -504.7748)">
			<stop  offset="0" style="stop-color:#E5ADC5"/>
			<stop  offset="1" style="stop-color:#CDB1DE"/>
		</linearGradient>
		<polygon id="triangle_x5F_44_6_" class="st10" points="100.3,-5.6 75.2,47.2 75.2,47.2 91.1,80.3 91.1,80.3 		"/>
		
			<linearGradient id="triangle_x5F_46_1_" gradientUnits="userSpaceOnUse" x1="-2.716" y1="-591.499" x2="-5.1606" y2="-575.0746" gradientTransform="matrix(1 0 0 -1 0 -504.7748)">
			<stop  offset="0" style="stop-color:#1E46E0"/>
			<stop  offset="1" style="stop-color:#3D48DF"/>
		</linearGradient>
		<polygon id="triangle_x5F_46_4_" class="st11" points="-2.7,86.7 -5,40.3 -5,40.3 -5.3,100.3 -5.3,100.3 		"/>
		
			<linearGradient id="triangle_x5F_52_1_" gradientUnits="userSpaceOnUse" x1="75.2043" y1="-551.9279" x2="36.7789" y2="-589.2073" gradientTransform="matrix(1 0 0 -1 0 -504.7748)">
			<stop  offset="0" style="stop-color:#819AF1"/>
			<stop  offset="1" style="stop-color:#5B8CFB"/>
		</linearGradient>
		<polygon id="triangle_x5F_52_8_" class="st12" points="75.2,47.2 21.4,69.5 21.4,69.5 52.1,99.4 52.1,99.4 		"/>
		
			<linearGradient id="triangle_x5F_53_1_" gradientUnits="userSpaceOnUse" x1="91.0939" y1="-585.082" x2="63.669" y2="-578.054" gradientTransform="matrix(1 0 0 -1 0 -504.7748)">
			<stop  offset="0" style="stop-color:#8FA3F0"/>
			<stop  offset="1" style="stop-color:#9AA5EF"/>
		</linearGradient>
		<polygon id="triangle_x5F_53_11_" class="st13" points="91.1,80.3 75.2,47.2 75.2,47.2 52.1,99.4 52.1,99.4 		"/>
		
			<linearGradient id="triangle_x5F_55_1_" gradientUnits="userSpaceOnUse" x1="21.424" y1="-574.2345" x2="24.7089" y2="-597.8396" gradientTransform="matrix(1 0 0 -1 0 -504.7748)">
			<stop  offset="0" style="stop-color:#3879FB"/>
			<stop  offset="1" style="stop-color:#2066F7"/>
		</linearGradient>
		<polygon id="triangle_x5F_55_11_" class="st14" points="21.4,69.5 -2.7,86.7 -2.7,86.7 52.1,99.4 52.1,99.4 		"/>
		
			<linearGradient id="triangle_x5F_56_1_" gradientUnits="userSpaceOnUse" x1="-2.7159" y1="-591.499" x2="23.4102" y2="-604.6385" gradientTransform="matrix(1 0 0 -1 0 -504.7748)">
			<stop  offset="0" style="stop-color:#145BF2"/>
			<stop  offset="1" style="stop-color:#1055F2"/>
		</linearGradient>
		<polygon id="triangle_x5F_56_10_" class="st15" points="-2.7,86.7 -5.3,100.3 -5.3,100.3 52.1,99.4 52.1,99.4 		"/>
		
			<linearGradient id="triangle_x5F_58_1_" gradientUnits="userSpaceOnUse" x1="100.261" y1="-499.217" x2="95.1427" y2="-595.0131" gradientTransform="matrix(1 0 0 -1 0 -504.7748)">
			<stop  offset="0" style="stop-color:#E6B1C9"/>
			<stop  offset="1" style="stop-color:#C4B3E6"/>
		</linearGradient>
		<polygon id="triangle_x5F_58_11_" class="st16" points="100.3,-5.6 91.1,80.3 91.1,80.3 99.2,100.2 99.2,100.2 		"/>
		
			<linearGradient id="triangle_x5F_61_1_" gradientUnits="userSpaceOnUse" x1="91.0939" y1="-585.0822" x2="75.6626" y2="-604.5622" gradientTransform="matrix(1 0 0 -1 0 -504.7748)">
			<stop  offset="0" style="stop-color:#88A3F5"/>
			<stop  offset="1" style="stop-color:#7EA5F5"/>
		</linearGradient>
		<polygon id="triangle_x5F_61_13_" class="st17" points="91.1,80.3 52.1,99.4 52.1,99.4 99.2,100.2 99.2,100.2 		"/>
	</g>
</g>
<g>
	<g>
		<path class="st18" d="M58.9,75H40.8c-0.1,0-0.3-0.1-0.3-0.2l-9.1-15.7c-0.1-0.1-0.1-0.3,0-0.4L40.5,43c0.1-0.1,0.2-0.2,0.3-0.2
			h18.1c0.1,0,0.3,0.1,0.3,0.2l9.1,15.7c0.1,0.1,0.1,0.3,0,0.4l-9.1,15.7C59.2,74.9,59.1,75,58.9,75z M41,74.2h17.7l8.9-15.3
			l-8.9-15.3H41l-8.9,15.3L41,74.2z"/>
	</g>
	<g>
		<path class="st18" d="M49.9,59c-0.1,0-0.2,0-0.3-0.1L23.4,32.7c-0.1-0.1-0.1-0.3-0.1-0.4c0.1-0.1,0.2-0.2,0.4-0.2h52.4
			c0.2,0,0.3,0.1,0.4,0.2c0.1,0.1,0,0.3-0.1,0.4L50.1,58.9C50.1,59,50,59,49.9,59z M24.6,32.8l25.3,25.3l25.3-25.3H24.6z"/>
	</g>
	<g>
		<path class="st18" d="M49.9,75.2c-0.1,0-0.3-0.1-0.3-0.2L23.3,32.7c-0.1-0.1-0.1-0.3,0-0.4c0.1-0.1,0.2-0.2,0.3-0.2h52.4
			c0.1,0,0.3,0.1,0.3,0.2c0.1,0.1,0.1,0.3,0,0.4L50.2,75C50.1,75.1,50,75.2,49.9,75.2z M24.4,32.8L49.9,74l25.5-41.2H24.4z"/>
	</g>
	<g>
		<path class="st18" d="M49.9,43.5c-0.1,0-0.2,0-0.3-0.1L31.2,24.9c-0.1-0.1-0.1-0.3-0.1-0.4c0.1-0.1,0.2-0.2,0.4-0.2h36.8
			c0.2,0,0.3,0.1,0.4,0.2c0.1,0.1,0,0.3-0.1,0.4L50.1,43.4C50.1,43.4,50,43.5,49.9,43.5z M32.4,25l17.5,17.5L67.4,25H32.4z"/>
	</g>
	<g>
		<path class="st18" d="M49.9,58.6c-0.1,0-0.3-0.1-0.3-0.2L31.1,24.8c-0.1-0.1-0.1-0.3,0-0.4c0.1-0.1,0.2-0.2,0.3-0.2h36.8
			c0.1,0,0.3,0.1,0.3,0.2c0.1,0.1,0.1,0.3,0,0.4L50.2,58.4C50.1,58.6,50,58.6,49.9,58.6z M32.1,25l17.8,32.4L67.6,25H32.1z"/>
	</g>
</g>
</svg>
