<?xml version="1.0" encoding="utf-8"?>
<!-- Generator: Adobe Illustrator 19.0.1, SVG Export Plug-In . SVG Version: 6.00 Build 0)  -->
<svg version="1.1" id="Calque_1" xmlns="http://www.w3.org/2000/svg" xmlns:xlink="http://www.w3.org/1999/xlink" x="0px" y="0px"
	 viewBox="0 0 137.8 137.8" style="enable-background:new 0 0 137.8 137.8;" xml:space="preserve">
<style type="text/css">
	.st0{clip-path:url(#SVGID_2_);}
	.st1{fill:url(#triangle_x5F_10_1_);}
	.st2{fill:url(#triangle_x5F_14_1_);}
	.st3{fill:url(#triangle_x5F_19_1_);}
	.st4{fill:url(#triangle_x5F_23_1_);}
	.st5{fill:url(#triangle_x5F_24_1_);}
	.st6{fill:url(#triangle_x5F_28_1_);}
	.st7{fill:url(#triangle_x5F_31_1_);}
	.st8{fill:url(#triangle_x5F_35_1_);}
	.st9{fill:url(#triangle_x5F_41_1_);}
	.st10{fill:url(#triangle_x5F_42_1_);}
	.st11{fill:url(#triangle_x5F_45_1_);}
	.st12{fill:url(#triangle_x5F_49_1_);}
	.st13{fill:url(#triangle_x5F_51_1_);}
	.st14{fill:url(#triangle_x5F_52_1_);}
	.st15{fill:url(#triangle_x5F_53_1_);}
	.st16{fill:url(#triangle_x5F_55_1_);}
	.st17{fill:url(#triangle_x5F_59_1_);}
	.st18{fill:url(#triangle_x5F_60_1_);}
	.st19{fill:url(#triangle_x5F_61_1_);}
	.st20{fill:url(#triangle_x5F_62_1_);}
	.st21{fill:url(#triangle_x5F_65_1_);}
</style>
<g>
	<defs>
		<circle id="SVGID_1_" cx="68.9" cy="68.9" r="68.9"/>
	</defs>
	<clipPath id="SVGID_2_">
		<use xlink:href="#SVGID_1_"  style="overflow:visible;"/>
	</clipPath>
	<g id="D.I._triangles_21_" class="st0">
		
			<linearGradient id="triangle_x5F_10_1_" gradientUnits="userSpaceOnUse" x1="30.7159" y1="-441.1757" x2="15.5881" y2="-475.0585" gradientTransform="matrix(1 0 0 -1 0 -405.4207)">
			<stop  offset="0" style="stop-color:#D3F5ED"/>
			<stop  offset="1" style="stop-color:#9BEFD9"/>
		</linearGradient>
		<polygon id="triangle_x5F_10_6_" class="st1" points="30.7,35.8 -11.2,66.5 -11.2,66.5 42.4,72.7 42.4,72.7 		"/>
		
			<linearGradient id="triangle_x5F_14_1_" gradientUnits="userSpaceOnUse" x1="42.3938" y1="-478.1549" x2="-5.2017" y2="-494.6983" gradientTransform="matrix(1 0 0 -1 0 -405.4207)">
			<stop  offset="0" style="stop-color:#8DE9D6"/>
			<stop  offset="1" style="stop-color:#70E6CC"/>
		</linearGradient>
		<polygon id="triangle_x5F_14_5_" class="st2" points="42.4,72.7 -11.2,66.5 -11.2,66.5 0.8,112 0.8,112 		"/>
		
			<linearGradient id="triangle_x5F_19_1_" gradientUnits="userSpaceOnUse" x1="42.3937" y1="-478.1549" x2="36.201" y2="-523.0961" gradientTransform="matrix(1 0 0 -1 0 -405.4207)">
			<stop  offset="0" style="stop-color:#96ECDC"/>
			<stop  offset="1" style="stop-color:#A4EADE"/>
		</linearGradient>
		<polygon id="triangle_x5F_19_7_" class="st3" points="42.4,72.7 0.8,112 0.8,112 71.6,123.3 71.6,123.3 		"/>
		
			<linearGradient id="triangle_x5F_23_1_" gradientUnits="userSpaceOnUse" x1="30.716" y1="-441.1755" x2="65.3069" y2="-469.5736" gradientTransform="matrix(1 0 0 -1 0 -405.4207)">
			<stop  offset="0" style="stop-color:#B3F2E5"/>
			<stop  offset="1" style="stop-color:#9AF0DA"/>
		</linearGradient>
		<polygon id="triangle_x5F_23_6_" class="st4" points="30.7,35.8 42.4,72.7 42.4,72.7 88.2,55.6 88.2,55.6 		"/>
		
			<linearGradient id="triangle_x5F_24_1_" gradientUnits="userSpaceOnUse" x1="42.3938" y1="-478.1549" x2="79.9038" y2="-494.8751" gradientTransform="matrix(1 0 0 -1 0 -405.4207)">
			<stop  offset="0" style="stop-color:#52DFC2"/>
			<stop  offset="1" style="stop-color:#71E4C9"/>
		</linearGradient>
		<polygon id="triangle_x5F_24_10_" class="st5" points="42.4,72.7 71.6,123.3 71.6,123.3 88.2,55.6 88.2,55.6 		"/>
		
			<linearGradient id="triangle_x5F_28_1_" gradientUnits="userSpaceOnUse" x1="30.7159" y1="-441.1755" x2="76.7191" y2="-441.3525" gradientTransform="matrix(1 0 0 -1 0 -405.4207)">
			<stop  offset="0" style="stop-color:#BEF5EC"/>
			<stop  offset="1" style="stop-color:#C0F5E9"/>
		</linearGradient>
		<polygon id="triangle_x5F_28_5_" class="st6" points="30.7,35.8 88.2,55.6 88.2,55.6 65.2,16.3 65.2,16.3 		"/>
		
			<linearGradient id="triangle_x5F_31_1_" gradientUnits="userSpaceOnUse" x1="-11.2176" y1="-471.962" x2="9.4836" y2="-434.9829" gradientTransform="matrix(1 0 0 -1 0 -405.4207)">
			<stop  offset="0" style="stop-color:#9FF0DB"/>
			<stop  offset="1" style="stop-color:#C5F2E7"/>
		</linearGradient>
		<polygon id="triangle_x5F_31_6_" class="st7" points="-11.2,66.5 30.7,35.8 30.7,35.8 -11.7,23.4 -11.7,23.4 		"/>
		
			<linearGradient id="triangle_x5F_35_1_" gradientUnits="userSpaceOnUse" x1="88.22" y1="-460.9923" x2="100.0745" y2="-508.4106" gradientTransform="matrix(1 0 0 -1 0 -405.4207)">
			<stop  offset="0" style="stop-color:#AEEEDC"/>
			<stop  offset="1" style="stop-color:#7AE7CD"/>
		</linearGradient>
		<polygon id="triangle_x5F_35_6_" class="st8" points="88.2,55.6 71.6,123.3 71.6,123.3 128.6,82.6 128.6,82.6 		"/>
		
			<linearGradient id="triangle_x5F_41_1_" gradientUnits="userSpaceOnUse" x1="65.2182" y1="-421.7127" x2="114.4943" y2="-437.4598" gradientTransform="matrix(1 0 0 -1 0 -405.4207)">
			<stop  offset="0" style="stop-color:#F0FDFD"/>
			<stop  offset="1" style="stop-color:#CBF7F1"/>
		</linearGradient>
		<polygon id="triangle_x5F_41_14_" class="st9" points="65.2,16.3 88.2,55.6 88.2,55.6 140.8,8.5 140.8,8.5 		"/>
		
			<linearGradient id="triangle_x5F_42_1_" gradientUnits="userSpaceOnUse" x1="88.2199" y1="-460.9921" x2="134.6648" y2="-450.9954" gradientTransform="matrix(1 0 0 -1 0 -405.4207)">
			<stop  offset="0" style="stop-color:#E0FAF6"/>
			<stop  offset="1" style="stop-color:#EAFAF9"/>
		</linearGradient>
		<polygon id="triangle_x5F_42_10_" class="st10" points="88.2,55.6 128.6,82.6 128.6,82.6 140.8,8.5 140.8,8.5 		"/>
		
			<linearGradient id="triangle_x5F_45_1_" gradientUnits="userSpaceOnUse" x1="128.5609" y1="-488.0631" x2="106.5326" y2="-532.4737" gradientTransform="matrix(1 0 0 -1 0 -405.4207)">
			<stop  offset="0" style="stop-color:#D1F4E4"/>
			<stop  offset="1" style="stop-color:#A2EEDE"/>
		</linearGradient>
		<polygon id="triangle_x5F_45_4_" class="st11" points="128.6,82.6 71.6,123.3 71.6,123.3 141.5,130.8 141.5,130.8 		"/>
		
			<linearGradient id="triangle_x5F_49_1_" gradientUnits="userSpaceOnUse" x1="71.588" y1="-528.7584" x2="7.1838" y2="-536.632" gradientTransform="matrix(1 0 0 -1 0 -405.4207)">
			<stop  offset="0" style="stop-color:#E2EBEF"/>
			<stop  offset="1" style="stop-color:#C4E8E5"/>
		</linearGradient>
		<polygon id="triangle_x5F_49_4_" class="st12" points="71.6,123.3 0.8,112 0.8,112 13.6,150.4 13.6,150.4 		"/>
		
			<linearGradient id="triangle_x5F_51_1_" gradientUnits="userSpaceOnUse" x1="141.4772" y1="-536.1893" x2="42.5707" y2="-542.2936" gradientTransform="matrix(1 0 0 -1 0 -405.4207)">
			<stop  offset="0" style="stop-color:#E2EBF0"/>
			<stop  offset="1" style="stop-color:#E4ECF0"/>
		</linearGradient>
		<polygon id="triangle_x5F_51_7_" class="st13" points="141.5,130.8 71.6,123.3 71.6,123.3 13.6,150.4 13.6,150.4 		"/>
		
			<linearGradient id="triangle_x5F_52_1_" gradientUnits="userSpaceOnUse" x1="30.716" y1="-441.1758" x2="58.6717" y2="-406.231" gradientTransform="matrix(1 0 0 -1 0 -405.4207)">
			<stop  offset="0" style="stop-color:#E0F9F5"/>
			<stop  offset="1" style="stop-color:#FBFDFD"/>
		</linearGradient>
		<polygon id="triangle_x5F_52_7_" class="st14" points="30.7,35.8 65.2,16.3 65.2,16.3 52.1,-14.7 52.1,-14.7 		"/>
		
			<linearGradient id="triangle_x5F_53_1_" gradientUnits="userSpaceOnUse" x1="-11.7484" y1="-428.7903" x2="41.4206" y2="-415.9625" gradientTransform="matrix(1 0 0 -1 0 -405.4207)">
			<stop  offset="0" style="stop-color:#EBF6F3"/>
			<stop  offset="1" style="stop-color:#E5F7F4"/>
		</linearGradient>
		<polygon id="triangle_x5F_53_10_" class="st15" points="-11.7,23.4 30.7,35.8 30.7,35.8 52.1,-14.7 52.1,-14.7 		"/>
		
			<linearGradient id="triangle_x5F_55_1_" gradientUnits="userSpaceOnUse" x1="65.2183" y1="-421.7127" x2="96.4471" y2="-402.3384" gradientTransform="matrix(1 0 0 -1 0 -405.4207)">
			<stop  offset="0" style="stop-color:#FDFEFE"/>
			<stop  offset="1" style="stop-color:#FFFFFF"/>
		</linearGradient>
		<polygon id="triangle_x5F_55_10_" class="st16" points="65.2,16.3 140.8,8.5 140.8,8.5 52.1,-14.7 52.1,-14.7 		"/>
		
			<linearGradient id="triangle_x5F_59_1_" gradientUnits="userSpaceOnUse" x1="140.7694" y1="-413.9275" x2="145.3698" y2="-487.7094" gradientTransform="matrix(1 0 0 -1 0 -405.4207)">
			<stop  offset="0" style="stop-color:#DEFBF8"/>
			<stop  offset="1" style="stop-color:#C2F5F0"/>
		</linearGradient>
		<polygon id="triangle_x5F_59_6_" class="st17" points="140.8,8.5 128.6,82.6 128.6,82.6 162.2,81.9 162.2,81.9 		"/>
		
			<linearGradient id="triangle_x5F_60_1_" gradientUnits="userSpaceOnUse" x1="128.561" y1="-488.0633" x2="151.8279" y2="-511.7725" gradientTransform="matrix(1 0 0 -1 0 -405.4207)">
			<stop  offset="0" style="stop-color:#91EEDE"/>
			<stop  offset="1" style="stop-color:#A7EAE6"/>
		</linearGradient>
		<polygon id="triangle_x5F_60_10_" class="st18" points="128.6,82.6 141.5,130.8 141.5,130.8 162.2,81.9 162.2,81.9 		"/>
		
			<linearGradient id="triangle_x5F_61_1_" gradientUnits="userSpaceOnUse" x1="0.8142" y1="-517.4345" x2="-17.2332" y2="-490.0979" gradientTransform="matrix(1 0 0 -1 0 -405.4207)">
			<stop  offset="0" style="stop-color:#5BE1BC"/>
			<stop  offset="1" style="stop-color:#9EF1E1"/>
		</linearGradient>
		<polygon id="triangle_x5F_61_12_" class="st19" points="0.8,112 -11.2,66.5 -11.2,66.5 -23.2,102.8 -23.2,102.8 		"/>
		
			<linearGradient id="triangle_x5F_62_1_" gradientUnits="userSpaceOnUse" x1="-11.2175" y1="-471.962" x2="-17.4987" y2="-468.5118" gradientTransform="matrix(1 0 0 -1 0 -405.4207)">
			<stop  offset="0" style="stop-color:#A8F2DF"/>
			<stop  offset="1" style="stop-color:#ADEFDA"/>
		</linearGradient>
		<polygon id="triangle_x5F_62_7_" class="st20" points="-11.2,66.5 -11.7,23.4 -11.7,23.4 -23.2,102.8 -23.2,102.8 		"/>
		
			<linearGradient id="triangle_x5F_65_1_" gradientUnits="userSpaceOnUse" x1="13.5534" y1="-555.8293" x2="-11.2176" y2="-512.834" gradientTransform="matrix(1 0 0 -1 0 -405.4207)">
			<stop  offset="0" style="stop-color:#D3E2E6"/>
			<stop  offset="1" style="stop-color:#ADE4DA"/>
		</linearGradient>
		<polygon id="triangle_x5F_65_10_" class="st21" points="13.6,150.4 0.8,112 0.8,112 -23.2,102.8 -23.2,102.8 		"/>
	</g>
</g>
<g>
	<g>
		<g>
			<path d="M69.6,102.7c-0.2,0-0.4-0.1-0.5-0.3L41.2,48.3c-0.1-0.2-0.1-0.4,0-0.5c0.1-0.2,0.3-0.3,0.5-0.3h55.8
				c0.2,0,0.4,0.1,0.5,0.3c0.1,0.2,0.1,0.4,0,0.5l-27.9,54.2C70,102.6,69.8,102.7,69.6,102.7z M42.6,48.6l27,52.4l27-52.4H42.6z"/>
		</g>
		<g>
			<path d="M69.6,102.7c-0.2,0-0.4-0.1-0.5-0.3L41.2,48.3c-0.1-0.2-0.1-0.4,0-0.5c0.1-0.2,0.3-0.3,0.5-0.3h15.7
				c0.3,0,0.5,0.2,0.5,0.4l12.2,54c0,0.1,0.1,0.2,0.1,0.3C70.2,102.5,69.9,102.7,69.6,102.7C69.6,102.7,69.6,102.7,69.6,102.7z
				 M42.6,48.6l25.5,49.5L56.9,48.6H42.6z"/>
		</g>
		<g>
			<path d="M69.4,102.7c-0.1,0-0.1,0-0.2,0c-0.3-0.1-0.4-0.4-0.3-0.6l12.2-54.2c0.1-0.2,0.3-0.4,0.5-0.4h15.7c0.2,0,0.4,0.1,0.5,0.3
				c0.1,0.2,0.1,0.4,0,0.5l-27.9,54.2C69.8,102.6,69.6,102.7,69.4,102.7z M82.1,48.6L70.9,98.1l25.5-49.5H82.1z"/>
		</g>
	</g>
	<g>
		<g>
			<path d="M97.5,48.6H41.7c-0.3,0-0.5-0.2-0.5-0.4s0.1-0.5,0.3-0.6l27.9-13c0.1-0.1,0.3-0.1,0.5,0l27.9,13c0.2,0.1,0.4,0.4,0.3,0.6
				C98,48.4,97.8,48.6,97.5,48.6z M44.2,47.5H95L69.6,35.6L44.2,47.5z"/>
		</g>
		<g>
			<path d="M57.4,48.6H41.7c-0.3,0-0.5-0.2-0.5-0.4s0.1-0.5,0.3-0.6l27.9-13c0.2-0.1,0.5,0,0.7,0.2c0.2,0.2,0.1,0.5,0,0.7l-12.2,13
				C57.7,48.5,57.5,48.6,57.4,48.6z M44.2,47.5h13l10.1-10.8L44.2,47.5z"/>
		</g>
		<g>
			<path d="M97.3,48.6C97.3,48.6,97.3,48.6,97.3,48.6H81.6c-0.2,0-0.3-0.1-0.4-0.2L69,35.3c-0.2-0.2-0.2-0.5,0-0.7
				c0.2-0.2,0.4-0.3,0.7-0.2l27.8,13c0.2,0.1,0.4,0.3,0.4,0.5C97.9,48.3,97.7,48.6,97.3,48.6z M81.9,47.5h13L71.8,36.7L81.9,47.5z"
				/>
		</g>
	</g>
</g>
</svg>
