<?xml version="1.0" encoding="utf-8"?>
<!-- Generator: Adobe Illustrator 19.0.1, SVG Export Plug-In . SVG Version: 6.00 Build 0)  -->
<svg version="1.1" id="Calque_1" xmlns="http://www.w3.org/2000/svg" xmlns:xlink="http://www.w3.org/1999/xlink" x="0px" y="0px"
	 viewBox="0 0 960 560" style="enable-background:new 0 0 960 560;" xml:space="preserve">
<style type="text/css">
	.st0{clip-path:url(#SVGID_2_);}
	.st1{fill:#AACAE7;}
	.st2{fill:#1A62C7;}
	.st3{fill:#265FBB;}
	.st4{fill:#428DD8;}
	.st5{fill:#2053B6;}
	.st6{fill:#1551C3;}
	.st7{fill:#EAEDF2;}
	.st8{fill:#BCDAF0;}
	.st9{fill:#E1EEF8;}
	.st10{fill:#D2ECFB;}
	.st11{fill:#89B4DD;}
	.st12{fill:#588FCA;}
	.st13{fill:#084EBC;}
	.st14{fill:#082D6F;}
	.st15{fill:#08408B;}
	.st16{fill:#95B7DB;}
	.st17{fill:#2973CE;}
	.st18{fill:#2D5DAE;}
	.st19{fill:#0D3ABD;}
	.st20{fill:#0C4CC4;}
	.st21{fill:#1E68EB;}
	.st22{fill:#094CBD;}
	.st23{fill:#134998;}
	.st24{fill:#1A66C3;}
	.st25{fill:#3865B1;}
	.st26{fill:#1449BC;}
	.st27{fill:#082B9E;}
	.st28{fill:#2E74C2;}
	.st29{fill:#0845BC;}
	.st30{fill:#185BD5;}
	.st31{fill:#EDEEF1;}
	.st32{fill:#F2F3F4;}
	.st33{fill:#E7ECF8;}
	.st34{fill:#75BDD6;}
	.st35{fill:#B0D9ED;}
	.st36{fill:#4AA0C4;}
	.st37{fill:#419CC4;}
	.st38{fill:#99D5F9;}
	.st39{fill:#5BB2E4;}
	.st40{fill:#C3DEF9;}
	.st41{fill:#F4F8FD;}
	.st42{fill:#BEEAFE;}
	.st43{fill:#6DB2BD;}
	.st44{fill:#4FA5D5;}
	.st45{fill:#75A5B9;}
	.st46{fill:#DEE9EE;}
	.st47{fill:#EBEEF0;}
	.st48{fill:#C3DEF0;}
	.st49{fill:#6BBAEA;}
	.st50{fill:#D8E4F3;}
	.st51{fill:#71BFED;}
	.st52{fill:#76D0F9;}
	.st53{fill:#D3FAFF;}
	.st54{fill:#67BEF2;}
	.st55{fill:#99BCD0;}
	.st56{fill:#539ACA;}
	.st57{fill:#4191E1;}
	.st58{fill:#62AFE8;}
	.st59{fill:#347EDB;}
	.st60{fill:#9DCCF8;}
	.st61{fill:#3792E5;}
	.st62{fill:#5488C1;}
	.st63{fill:#205CC5;}
	.st64{fill:#5490D6;}
	.st65{fill:#3A92E1;}
	.st66{fill:#97C4EC;}
	.st67{fill:#498ED7;}
	.st68{fill:#63C2F8;}
	.st69{fill:#297BD9;}
	.st70{fill:#0C4BD4;}
	.st71{fill:#0150C2;}
	.st72{fill:#0560C8;}
	.st73{fill:#326FC6;}
	.st74{fill:#1867E2;}
	.st75{fill:#1442A2;}
	.st76{fill:#124DCF;}
	.st77{fill:#094BC3;}
	.st78{fill:#0736B4;}
	.st79{fill:#0A5AD0;}
	.st80{fill:#043DA1;}
	.st81{fill:#0941B3;}
	.st82{fill:#184897;}
	.st83{fill:#114AD1;}
	.st84{fill:#154DCE;}
	.st85{fill:#237DE0;}
	.st86{fill:#1260D9;}
	.st87{fill:#0E3FD6;}
	.st88{fill:#104AD6;}
	.st89{fill:#0547CF;}
	.st90{fill:#115FE0;}
</style>
<g>
	<defs>
		<circle id="SVGID_1_" cx="481.1" cy="278.1" r="48.4"/>
	</defs>
	<clipPath id="SVGID_2_">
		<use xlink:href="#SVGID_1_"  style="overflow:visible;"/>
	</clipPath>
	<g class="st0">
		<g>
			<polygon class="st1" points="507.4,295.9 507.4,327.3 480.3,311.6 480.3,280.3 			"/>
			<polygon class="st2" points="507.4,295.9 534.5,280.3 534.5,311.6 507.4,327.3 			"/>
			<polygon class="st3" points="507.4,295.9 480.3,280.3 507.4,264.6 534.5,280.3 			"/>
		</g>
		<g>
			<polygon class="st4" points="480.3,249 480.3,280.3 453.2,264.6 453.2,233.3 			"/>
			<polygon class="st5" points="480.3,249 507.4,233.3 507.4,264.6 480.3,280.3 			"/>
			<polygon class="st6" points="480.3,249 453.2,233.3 480.3,217.6 507.4,233.3 			"/>
		</g>
		<g>
			<polygon class="st7" points="480.3,311.6 480.3,342.9 453.2,327.3 453.2,295.9 			"/>
			<polygon class="st8" points="480.3,311.6 507.4,295.9 507.4,327.3 480.3,342.9 			"/>
			<polygon class="st9" points="480.3,311.6 453.2,295.9 480.3,280.3 507.4,295.9 			"/>
		</g>
		<g>
			<polygon class="st10" points="480.3,280.3 480.3,311.6 453.2,295.9 453.2,264.6 			"/>
			<polygon class="st11" points="480.3,280.3 507.4,264.6 507.4,295.9 480.3,311.6 			"/>
			<polygon class="st12" points="480.3,280.3 453.2,264.6 480.3,249 507.4,264.6 			"/>
		</g>
		<g>
			<polygon class="st13" points="521,272.4 521,288.1 507.4,280.3 507.4,264.6 			"/>
			<polygon class="st14" points="521,272.4 534.5,264.6 534.5,280.3 521,288.1 			"/>
			<polygon class="st15" points="521,272.4 507.4,264.6 521,256.8 534.5,264.6 			"/>
		</g>
		<g>
			<polygon class="st16" points="493.8,272.4 493.8,288.1 480.3,280.3 480.3,264.6 			"/>
			<polygon class="st17" points="493.8,272.4 507.4,264.6 507.4,280.3 493.8,288.1 			"/>
			<polygon class="st18" points="493.8,272.4 480.3,264.6 493.8,256.8 507.4,264.6 			"/>
		</g>
		<g>
			<polygon class="st19" points="507.4,249 507.4,264.6 493.8,256.8 493.8,241.1 			"/>
			<polygon class="st20" points="507.4,249 521,241.1 521,256.8 507.4,264.6 			"/>
			<polygon class="st21" points="507.4,249 493.8,241.1 507.4,233.3 521,241.1 			"/>
		</g>
		<g>
			<polygon class="st22" points="521,256.8 521,272.4 507.4,264.6 507.4,249 			"/>
			<polygon class="st23" points="521,256.8 534.5,249 534.5,264.6 521,272.4 			"/>
			<polygon class="st24" points="521,256.8 507.4,249 521,241.1 534.5,249 			"/>
		</g>
		<g>
			<polygon class="st25" points="493.8,256.8 493.8,272.4 480.3,264.6 480.3,249 			"/>
			<polygon class="st26" points="493.8,256.8 507.4,249 507.4,264.6 493.8,272.4 			"/>
			<polygon class="st27" points="493.8,256.8 480.3,249 493.8,241.1 507.4,249 			"/>
		</g>
		<g>
			<polygon class="st28" points="507.4,280.3 507.4,295.9 493.8,288.1 493.8,272.4 			"/>
			<polygon class="st29" points="507.4,280.3 521,272.4 521,288.1 507.4,295.9 			"/>
			<polygon class="st30" points="507.4,280.3 493.8,272.4 507.4,264.6 521,272.4 			"/>
		</g>
		<g>
			<polygon class="st31" points="466.7,303.8 466.7,319.4 453.2,311.6 453.2,295.9 			"/>
			<polygon class="st32" points="466.7,303.8 480.3,295.9 480.3,311.6 466.7,319.4 			"/>
			<polygon class="st33" points="466.7,303.8 453.2,295.9 466.7,288.1 480.3,295.9 			"/>
		</g>
		<g>
			<polygon class="st34" points="439.6,303.8 439.6,319.4 426,311.6 426,295.9 			"/>
			<polygon class="st35" points="439.6,303.8 453.2,295.9 453.2,311.6 439.6,319.4 			"/>
			<polygon class="st36" points="439.6,303.8 426,295.9 439.6,288.1 453.2,295.9 			"/>
		</g>
		<g>
			<polygon class="st37" points="453.2,280.3 453.2,295.9 439.6,288.1 439.6,272.4 			"/>
			<polygon class="st38" points="453.2,280.3 466.7,272.4 466.7,288.1 453.2,295.9 			"/>
			<polygon class="st39" points="453.2,280.3 439.6,272.4 453.2,264.6 466.7,272.4 			"/>
		</g>
		<g>
			<polygon class="st40" points="466.7,288.1 466.7,303.8 453.2,295.9 453.2,280.3 			"/>
			<polygon class="st41" points="466.7,288.1 480.3,280.3 480.3,295.9 466.7,303.8 			"/>
			<polygon class="st42" points="466.7,288.1 453.2,280.3 466.7,272.4 480.3,280.3 			"/>
		</g>
		<g>
			<polygon class="st43" points="439.6,288.1 439.6,303.8 426,295.9 426,280.3 			"/>
			<polygon class="st44" points="439.6,288.1 453.2,280.3 453.2,295.9 439.6,303.8 			"/>
			<polygon class="st45" points="439.6,288.1 426,280.3 439.6,272.4 453.2,280.3 			"/>
		</g>
		<g>
			<polygon class="st46" points="453.2,311.6 453.2,327.3 439.6,319.4 439.6,303.8 			"/>
			<polygon class="st47" points="453.2,311.6 466.7,303.8 466.7,319.4 453.2,327.3 			"/>
			<polygon class="st48" points="453.2,311.6 439.6,303.8 453.2,295.9 466.7,303.8 			"/>
		</g>
		<g>
			<polygon class="st49" points="453.2,295.9 453.2,311.6 439.6,303.8 439.6,288.1 			"/>
			<polygon class="st50" points="453.2,295.9 466.7,288.1 466.7,303.8 453.2,311.6 			"/>
			<polygon class="st51" points="453.2,295.9 439.6,288.1 453.2,280.3 466.7,288.1 			"/>
		</g>
		<g>
			<polygon class="st52" points="466.7,272.4 466.7,288.1 453.2,280.3 453.2,264.6 			"/>
			<polygon class="st53" points="466.7,272.4 480.3,264.6 480.3,280.3 466.7,288.1 			"/>
			<polygon class="st54" points="466.7,272.4 453.2,264.6 466.7,256.8 480.3,264.6 			"/>
		</g>
		<g>
			<polygon class="st55" points="439.6,272.4 439.6,288.1 426,280.3 426,264.6 			"/>
			<polygon class="st56" points="439.6,272.4 453.2,264.6 453.2,280.3 439.6,288.1 			"/>
			<polygon class="st57" points="439.6,272.4 426,264.6 439.6,256.8 453.2,264.6 			"/>
		</g>
		<g>
			<polygon class="st58" points="453.2,249 453.2,264.6 439.6,256.8 439.6,241.1 			"/>
			<polygon class="st59" points="453.2,249 466.7,241.1 466.7,256.8 453.2,264.6 			"/>
			<polygon class="st60" points="453.2,249 439.6,241.1 453.2,233.3 466.7,241.1 			"/>
		</g>
		<g>
			<polygon class="st61" points="466.7,256.8 466.7,272.4 453.2,264.6 453.2,249 			"/>
			<polygon class="st62" points="466.7,256.8 480.3,249 480.3,264.6 466.7,272.4 			"/>
			<polygon class="st63" points="466.7,256.8 453.2,249 466.7,241.1 480.3,249 			"/>
		</g>
		<g>
			<polygon class="st64" points="439.6,256.8 439.6,272.4 426,264.6 426,249 			"/>
			<polygon class="st65" points="439.6,256.8 453.2,249 453.2,264.6 439.6,272.4 			"/>
			<polygon class="st66" points="439.6,256.8 426,249 439.6,241.1 453.2,249 			"/>
		</g>
		<g>
			<polygon class="st37" points="453.2,280.3 453.2,295.9 439.6,288.1 439.6,272.4 			"/>
			<polygon class="st38" points="453.2,280.3 466.7,272.4 466.7,288.1 453.2,295.9 			"/>
			<polygon class="st39" points="453.2,280.3 439.6,272.4 453.2,264.6 466.7,272.4 			"/>
		</g>
		<g>
			<polygon class="st67" points="453.2,264.6 453.2,280.3 439.6,272.4 439.6,256.8 			"/>
			<polygon class="st68" points="453.2,264.6 466.7,256.8 466.7,272.4 453.2,280.3 			"/>
			<polygon class="st69" points="453.2,264.6 439.6,256.8 453.2,249 466.7,256.8 			"/>
		</g>
		<g>
			<polygon class="st70" points="514.2,268.5 514.2,276.4 507.4,272.4 507.4,264.6 			"/>
			<polygon class="st71" points="514.2,268.5 521,264.6 521,272.4 514.2,276.4 			"/>
			<polygon class="st72" points="514.2,268.5 507.4,264.6 514.2,260.7 521,264.6 			"/>
		</g>
		<g>
			<polygon class="st73" points="500.6,268.5 500.6,276.4 493.8,272.4 493.8,264.6 			"/>
			<polygon class="st74" points="500.6,268.5 507.4,264.6 507.4,272.4 500.6,276.4 			"/>
			<polygon class="st75" points="500.6,268.5 493.8,264.6 500.6,260.7 507.4,264.6 			"/>
		</g>
		<g>
			<polygon class="st76" points="507.4,256.8 507.4,264.6 500.6,260.7 500.6,252.9 			"/>
			<polygon class="st77" points="507.4,256.8 514.2,252.9 514.2,260.7 507.4,264.6 			"/>
			<polygon class="st78" points="507.4,256.8 500.6,252.9 507.4,249 514.2,252.9 			"/>
		</g>
		<g>
			<polygon class="st79" points="514.2,260.7 514.2,268.5 507.4,264.6 507.4,256.8 			"/>
			<polygon class="st80" points="514.2,260.7 521,256.8 521,264.6 514.2,268.5 			"/>
			<polygon class="st81" points="514.2,260.7 507.4,256.8 514.2,252.9 521,256.8 			"/>
		</g>
		<g>
			<polygon class="st82" points="500.6,260.7 500.6,268.5 493.8,264.6 493.8,256.8 			"/>
			<polygon class="st83" points="500.6,260.7 507.4,256.8 507.4,264.6 500.6,268.5 			"/>
			<polygon class="st84" points="500.6,260.7 493.8,256.8 500.6,252.9 507.4,256.8 			"/>
		</g>
		<g>
			<polygon class="st85" points="507.4,272.4 507.4,280.3 500.6,276.4 500.6,268.5 			"/>
			<polygon class="st86" points="507.4,272.4 514.2,268.5 514.2,276.4 507.4,280.3 			"/>
			<polygon class="st87" points="507.4,272.4 500.6,268.5 507.4,264.6 514.2,268.5 			"/>
		</g>
		<g>
			<polygon class="st88" points="507.4,264.6 507.4,272.4 500.6,268.5 500.6,260.7 			"/>
			<polygon class="st89" points="507.4,264.6 514.2,260.7 514.2,268.5 507.4,272.4 			"/>
			<polygon class="st90" points="507.4,264.6 500.6,260.7 507.4,256.8 514.2,260.7 			"/>
		</g>
	</g>
</g>
<g>
	<g>
		<g>
			<path d="M459.4,302.7c0,0-0.1,0-0.1,0c-0.1-0.1-0.2-0.2-0.2-0.4v-44.8c0-0.2,0.2-0.4,0.4-0.4h44.8c0.2,0,0.3,0.1,0.4,0.2
				c0.1,0.1,0,0.3-0.1,0.4l-44.8,44.8C459.6,302.7,459.5,302.7,459.4,302.7z M459.7,257.9v43.5l43.5-43.5H459.7z"/>
		</g>
		<g>
			<path d="M504.2,302.7h-44.8c-0.2,0-0.4-0.2-0.4-0.4v-44.8c0-0.2,0.2-0.4,0.4-0.4h44.8c0.2,0,0.4,0.2,0.4,0.4v44.8
				C504.6,302.5,504.4,302.7,504.2,302.7z M459.7,301.9h44.1v-44.1h-44.1V301.9z"/>
		</g>
	</g>
	<g>
		<path d="M499.6,293.3C499.6,293.3,499.6,293.3,499.6,293.3h-35.7c-0.1,0-0.3-0.1-0.3-0.2c-0.1-0.1-0.1-0.3,0-0.4l17.8-25.9
			c0.1-0.2,0.5-0.2,0.6,0l17.8,25.9c0.1,0.1,0.1,0.2,0.1,0.3C500,293.1,499.9,293.3,499.6,293.3z M464.7,292.5h34.2l-17.1-24.9
			L464.7,292.5z"/>
	</g>
</g>
</svg>
